<svg version="1.1" xmlns="http://www.w3.org/2000/svg" width="300" height="300" viewBox="0 0 300 300"><path d="M234.145,0h6.363c8.292,43.757,9.52,88.862,3.741,133.02c-4.211,30.662-11.99,61.007-24.907,89.199c-1.854,3.275-2.744,8.298-7.441,8.318c-3.334-3.761,0.744-7.949,2.143-11.604c20.729-46.217,28.039-97.409,27.582-147.755c-16.532,2.459-33.143,4.341-49.785,5.872c-14.883,1.819-29.843,3.521-44.861,3.177c-4.036-0.005-8.311-1.056-11.176-4.066c-19.906,1.928-39.739,5.234-59.793,5.089c-4.703,0.205-9.612-0.474-13.636-3.067c-5.432-5.836-3.025-16.446,4.479-19.204c6.74-0.415,13.548-0.264,20.263,0.54c16.491,1.604,32.975,3.275,49.473,4.807c1.761-1.301,3.341-3.323,5.688-3.461c4.017-0.146,8.048-0.119,12.064,0.095c29.026,2.648,58.046,5.378,87.078,7.974C240.898,45.814,238.721,22.682,234.145,0z"/><path d="M118.697,13.942c5.616-0.752,11.421,1.076,15.933,4.419c5.187,3.906,7.914,10.313,8.522,16.646c-0.297,8.407-5.161,16.93-13.212,20.082c-7.172,3.308-15.971,1.936-22.101-2.928c-5.245-4.482-8.54-11.36-8.019-18.321C100.568,23.867,108.727,15.146,118.697,13.942z"/><path d="M122.695,148.649c1.974-2.709,5.329-3.651,8.454-4.268c8.614,1.204,15.66,7.034,20.628,13.882c6.018,8.326,12.559,16.313,17.691,25.244c8.92,14.187,15.993,29.443,22.148,45.002c5.74,15.644,9.746,31.844,14.229,47.876c0.381,4.259,1.702,8.862,0.291,13.003c-3.141-4.141-4.395-9.246-6.676-13.831c-16.992-30.124-34.287-60.552-57.92-86.07c-7.372-8.021-16.183-15.187-20.764-25.325C118.456,159.147,118.748,152.77,122.695,148.649z"/><path d="M100.044,147.13c3.722-1.726,8.031-1.115,11.729,0.356c6.247,6.461,7.977,15.867,6.494,24.512c-3.14,29.868-12.858,58.866-26.968,85.304c-3.903,7.891-8.377,15.483-12.493,23.265c-2.246,4.551-5.833,8.206-8.886,12.201c-0.28-0.326-0.841-0.98-1.122-1.311c1.21-5.37,4.319-10.068,5.459-15.454c7.246-28.24,14.876-56.728,15.888-86.021c0.78-10.485-1.055-21.218,1.654-31.511C93.126,153.96,95.425,149.04,100.044,147.13z"/></svg>
