<svg version="1.1" xmlns="http://www.w3.org/2000/svg" width="300" height="300" viewBox="0 0 300 300"><path d="M246.53125,8.46875C234.68956,8.46875 225.0625,18.064556 225.0625,29.90625C225.0625,41.747944 234.68955,51.375 246.53125,51.375C258.37294,51.375 267.96876,41.747945 267.96875,29.90625C267.96875,18.064556 258.37294,8.46875 246.53125,8.46875z M246.6875,14.09375C255.32611,14.09375 262.34375,21.111387 262.34375,29.75C262.34374,38.388613 255.32611,45.375 246.6875,45.375C238.04889,45.375001 231.0625,38.388613 231.0625,29.75C231.0625,21.111387 238.04889,14.09375 246.6875,14.09375z"/><path d="M83.554379 60.079575A17.108753 17.108753 0 1 1 49.336872,60.079575A17.108753 17.108753 0 1 1 83.554379 60.079575z" transform="matrix(1.2926928,0,0,1.2926928,34.197113,-27.463538)"/><path d="M165.26756,54.30809C189.62415,40.848068 209.85075,21.530441 230.19347,2.851776C224.76625,14.922882 218.6165,26.839874 210.01576,36.996185C196.7057,53.170258 182.75302,69.941605 163.94026,79.874985C157.92078,83.648254 148.31886,78.503738 149.93716,70.946533C150.55814,62.581146 159.09747,58.369919 165.26756,54.30809z"/><path d="M116.40909,162.49899C123.44685,160.41692 129.16621,168.59872 127.91214,175.02338C127.63443,194.39491 117.00241,211.60431 108.16597,228.19663C94.661697,249.51035 82.947876,272.03134 67.761795,292.23225C72.242874,274.88841 78.185547,257.95291 82.488937,240.55928C88.326202,218.00739 93.406891,194.90089 103.97215,173.96518C106.54245,168.95946 110.21826,163.05377 116.40909,162.49899z"/><path d="M163.66777,124.62373C168.08896,122.8549 173.62883,123.30412 176.6324,127.3331C181.08211,133.29919 181.69095,141.26585 181.53966,148.44861C177.5537,180.31715 157.21561,206.67677 136.93068,230.27333C142.06792,214.98157 150.63887,200.91615 153.96352,185.00688C155.46668,178.74298 156.15897,172.3335 157.09909,165.97288C154.34215,168.61662 151.9475,171.78857 148.59352,173.70149C143.80312,175.56262 138.67844,172.54327 137.0984,167.98341C133.95029,161.6826 135.54387,154.31117 138.15483,148.11917C143.38853,137.61162 152.1657,128.08156 163.66777,124.62373z"/><path d="M68.354935,100.37206C76.009567,93.849396 84.254822,85.809601 95.057983,86.02803C100.61311,85.634354 105.2758,91.956604 103.30287,97.158798C102.09891,101.84953 97.305771,104.0401 93.857925,106.87906C77.635956,117.75069 60.786667,128.01556 46.763412,141.7623C37.46553,150.70389 30.111984,161.65335 19.494888,169.19572C29.727158,142.69484 47.589218,119.54225 68.354935,100.37206z"/><path d="M221.28677,54.863342C241.61266,53.476227 262.03925,53.553741 282.37651,54.726944C280.93036,61.864868 278.56723,68.771103 276.99875,75.877777C275.5544,83.576462 275.00357,91.414215 273.51836,99.105698C271.83635,99.061981 270.15778,99.017456 268.48264,98.972107C267.87398,85.735275 270.62187,72.704254 274.3443,60.083939C259.29893,59.957031 244.25615,59.986404 229.21419,59.967468C232.58049,71.684128 235.23033,83.732071 234.96773,95.996078C235.19035,98.590271 231.79719,98.739868 230.17856,99.916412C228.82251,90.640228 228.3719,81.185913 225.84854,72.116653C224.33148,66.369827 222.03848,60.793671 221.28677,54.863342z"/></svg>
