<svg version="1.1" xmlns="http://www.w3.org/2000/svg" width="300" height="300" viewBox="0 0 224.99999 224.99999"><path transform="scale(0.74999997)" d="M0 246.60938L0 264.31055L117.64258 264.31055L157.75977 300L184.25586 300L124.97656 246.60938L0 246.60938z"/><g transform="rotate(-10.999374,509.66196,283.13387)"><path d="m110.80849,-47.378628c-4.39106,-6.513791 -2.63382,-15.859831 3.1174,-20.976188 5.34668,-5.048784 13.64311,-5.051422 20.06496,-2.21755 5.21062,2.447256 10.66019,4.385228 15.75587,7.071329 -2.87396,1.504999 -6.28092,1.128921 -9.39457,1.767807 1.10096,3.465599 0.84649,7.154663 -0.1859,10.599299 2.40797,-0.315174 4.82561,-0.547271 7.24778,-0.745322 -0.5471,2.568086 -1.24178,5.177124 -2.51474,7.481559 -6.08077,1.73407 -12.30117,3.101037 -18.53223,4.237698 -5.96837,0.739608 -12.40165,-1.987214 -15.55857,-7.218632z"/><path d="m97.327494,-41.793627c0.692037,-4.379633 6.147376,-7.5788 10.192286,-5.357869 5.22068,2.788379 8.73555,8.106336 14.36904,10.237875 3.4382,1.514698 7.28272,1.619202 10.95989,1.168272 10.44303,-1.363644 20.88854,-2.725436 31.33517,-4.066857 3.03209,-0.109854 6.15162,-0.581292 9.13819,0.138475 -1.20364,1.109952 -2.53623,2.067648 -4.0419,2.714539 -11.75231,5.355279 -23.64238,10.838334 -36.46807,13.038402 -6.60909,1.184544 -13.69606,2.182916 -20.1386,-0.290573 -4.72552,-2.379224 -9.05292,-5.726497 -12.36608,-9.862899 -1.651689,-2.218296 -3.28417,-4.829641 -2.979926,-7.719365z"/><path d="m124.12351,-12.020497c-8.41341,0.413456 -16.71289,1.938763 -24.990595,3.4124411 -8.050404,1.759624 -16.249779,4.029684 -22.946514,9.04500698C75.0887,2.6430212 74.200212,5.2184812 75.078067,7.6602512c1.339632,3.9435398 5.650446,6.0763898 9.592608,6.3528898 6.334376,0.29967 12.594207,-0.92081 18.869245,-1.58337 6.28192,-0.74073 12.30141,-2.7683599 18.54377,-3.7226298 0.12669,0.27409 0.37997,0.8233499 0.50608,1.0979199 -0.46787,2.7008899 -1.34763,5.2953599 -2.31101,7.8525199 -1.60395,5.30498 -3.02208,10.66458 -4.60277,15.97673 -7.19828,-3.60108 -16.139844,-3.79632 -23.386309,-0.20426 -6.916719,2.971 -12.254282,8.86775 -15.483216,15.57298 -4.717409,9.43016 -5.469033,20.73257 -2.28014,30.76167 2.41107,6.85067 6.11411,13.60894 12.163659,17.88527 6.543284,5.191719 15.497686,7.476279 23.648906,5.344179 8.20416,-2.01851 15.10068,-7.902119 19.37416,-15.070879 9.10136,-15.53166 6.71337,-37.42587 -6.95716,-49.60339 4.28871,-6.58509 8.86897,-13.05468 12.02991,-20.28602 1.22001,3.52142 2.68281,6.95135 4.05306,10.41611 3.51552,8.02975 6.1048,16.43433 9.43144,24.53385 1.20737,-1.49231 0.92663,-3.44259 0.93615,-5.21727 -0.18291,-6.10094 -0.77278,-12.1788 -1.2411,-18.26189 -1.44956,-11.40064 -4.51045,-22.6139798 -9.08628,-33.1574009 -2.21939,-5.816724 -8.8636,-8.6028621 -14.75556,-8.3677571z m2.41444,95.928028c-3.56139,7.36332 -10.43571,13.16496 -18.48905,14.88538 -8.069544,1.512989 -16.54237,-1.99927 -21.969801,-7.98843 -11.506688,-12.36723 -11.682549,-33.25481 -0.930718,-46.14239 6.523514,-8.68181 19.584669,-11.95924 29.205989,-6.59549 -1.18261,4.96246 -2.82753,9.82669 -3.81231,14.82528 0.11019,0.26335 0.332,0.79181 0.44267,1.05575 3.02928,-3.9685 5.92197,-8.04046 8.96469,-11.99959 11.06984,10.58388 13.6379,28.48292 6.58853,41.95949z"/><path d="m189.94014,-7.5067399c5.36544,-4.3741421 12.22239,-6.9674141 19.18671,-6.7346201 8.12784,0.386372 15.89172,4.4533831 21.05879,10.7119181 6.72896,7.5678731 9.50876,17.9450129 9.24291,27.9156829 -0.70357,10.02367 -4.49851,20.44647 -12.44553,26.92522 -0.41329,0.33695 -0.83769,0.66268 -1.27381,0.97758 -0.26575,0.24376 -0.53931,0.4803 -0.816,0.70588 -3.30356,2.69321 -7.40554,4.17557 -11.47261,5.30433 -9.06028,1.74106 -18.80488,-1.43207 -25.23181,-8.02887 -15.46282,-14.96824 -14.95288,-42.6775398 0.98403,-57.1302099 0.2527,-0.220594 0.50811,-0.43551 0.76737,-0.646872m2.84341,3.487822c0,0 5.9e-4,-4.73e-4 0,0v0c-0.20868,0.170133 -0.41717,0.34526 -0.62088,0.522687 -6.67642,6.0728731 -10.59655,15.2323529 -10.75827,25.1384529 -0.15995,9.88336 3.45252,19.13944 9.91636,25.39456l0.0475,0.0456 0.0464,0.0473c5.3501,5.49195 13.56995,8.14313 20.98715,6.7807 3.2281,-0.90443 6.87049,-2.13985 9.6503,-4.40606 0.21159,-0.1725 0.41871,-0.35167 0.61781,-0.53359l0.19411,-0.17851 0.21337,-0.1537c0.36084,-0.26126 0.71975,-0.53555 1.0662,-0.818 6.13683,-5.003 10.06733,-13.62037 10.79223,-23.65466 0.24135,-9.78232 -2.63736,-18.5537898 -8.10825,-24.70784992l-0.0548,-0.06082 -0.0522,-0.06285c-4.42745,-5.36069598 -11.06794,-8.75365198 -17.77437,-9.07960498 -5.59262,-0.176339 -11.4805,1.90946 -16.16233,5.726289z"/></g></svg>
