<svg version="1.1" xmlns="http://www.w3.org/2000/svg" width="300" height="300" viewBox="0 0 300 300"><path d="M176.208,65.046c0.95-10.431,10.64-18.609,20.894-19.051c9.779-0.713,18.355,6.274,22.604,14.613c3.323,6.919,7.322,13.513,10.325,20.582c-4.238-0.866-7.442-4.125-11.198-6.088c-1.782,4.509-5.153,8.107-9.122,10.797c2.754,1.703,5.448,3.5,8.118,5.336c-2.729,2.193-5.645,4.304-8.902,5.613c-7.745-3.331-15.325-7.159-22.722-11.234C179.414,81.35,175.063,73.112,176.208,65.046z"/><path d="M157.571,59.46c4.405-3.943,12.738-2.653,15.047,3.05c3.046,7.28,2.198,15.737,6.224,22.686c2.277,4.462,6.162,7.809,10.342,10.441c11.941,7.389,23.883,14.782,35.809,22.197c3.226,2.441,6.847,4.582,9.327,7.842c-2.179,0.133-4.363,0-6.464-0.6c-16.657-4.367-33.564-8.718-48.672-17.25c-7.828-4.344-15.993-9.283-20.567-17.267c-2.879-6.44-4.531-13.545-4.47-20.611C154.309,66.264,154.822,62.19,157.571,59.46z"/><path d="M160.179,112.804c-9.043-6.661-18.905-12.077-28.701-17.528c-9.802-4.964-20.188-9.526-31.334-9.985c-2.993,1.355-6.081,3.268-7.231,6.531c-1.938,5.204,0.72,11.04,4.561,14.647c6.294,5.646,13.791,9.659,20.834,14.261c7.116,4.527,15.045,7.503,22.3,11.776c-0.1,0.39-0.301,1.171-0.402,1.561c-2.759,2.397-5.854,4.337-9.004,6.168c-6.127,4.131-12.108,8.475-18.217,12.633c-4.405-9.786-13.481-17.521-23.996-19.914c-9.651-2.757-20.135-1.16-29.121,3.049c-12.82,5.771-23.119,16.818-28.273,29.869c-3.28,9.111-5.147,19.215-2.498,28.731c2.388,10.878,9.717,20.783,19.937,25.447c10.179,4.826,22.263,4.556,32.719,0.748c22.491-8.383,38.469-33.021,34.601-57.123c9.98-3.192,20.164-6.019,29.523-10.829c-1.706,4.667-3.084,9.444-4.587,14.179c-3.132,11.26-7.537,22.127-10.923,33.3c2.505-0.525,3.858-2.777,5.363-4.603c4.951-6.459,9.462-13.237,14.103-19.918c8.107-13.003,14.391-27.17,18.545-41.921C170.985,126.002,166.466,117.525,160.179,112.804z M81.855,213.973c-9.884,4.609-21.876,4.813-31.648-0.194c-9.614-5.235-15.411-16.003-15.974-26.765c-1.472-22.475,15.944-44.209,37.913-48.469c14.056-3.476,30.315,4.141,35.739,17.79c-5.403,4.132-11.201,7.773-16.43,12.109c-0.108,0.365-0.324,1.098-0.432,1.464c6.474-1.549,12.894-3.32,19.374-4.848C112.92,185.324,100.494,205.985,81.855,213.973z"/><path d="M224.393,172.919c9.23,0,18.501,3.097,25.502,9.205c8.074,7.247,12.671,17.991,12.738,28.812c0.578,13.49-5.292,26.556-13.967,36.636c-9.172,9.766-21.875,17.34-35.546,17.34c-0.711,0-1.424-0.021-2.14-0.063c-0.48,0.028-0.962,0.042-1.438,0.042c-5.683,0-11.171-1.924-16.325-4.184c-10.83-5.834-18.227-17.323-19.311-29.555c-3.369-28.496,20.503-56.702,49.149-58.211C223.502,172.926,223.947,172.919,224.393,172.919 M224.393,178.919C224.393,178.919,224.394,178.919,224.393,178.919L224.393,178.919c-0.359,0-0.722,0.005-1.082,0.017c-12.016,0.651-23.784,6.814-32.297,16.915c-8.492,10.079-12.557,22.688-11.147,34.598l0.01,0.087l0.008,0.088c0.902,10.183,7.163,19.848,15.976,24.689c4.098,1.785,8.903,3.577,13.685,3.577c0.364,0,0.729-0.011,1.088-0.031l0.351-0.021l0.35,0.021c0.593,0.034,1.195,0.053,1.791,0.053c10.557,0,21.879-5.594,31.082-15.353c8.491-9.906,12.906-21.396,12.437-32.365l-0.005-0.109l-0.001-0.109c-0.059-9.27-4.063-18.371-10.719-24.358C240.289,181.724,232.447,178.919,224.393,178.919L224.393,178.919z"/></svg>
