<svg version="1.1" xmlns="http://www.w3.org/2000/svg" width="300" height="300" viewBox="0 0 255 255"><path transform="scale(0.75)" d="M164.81445 48.761719A21.8875 21.8875 0 0 0 143.08203 70.650391A21.8875 21.8875 0 0 0 164.96875 92.537109A21.8875 21.8875 0 0 0 186.85742 70.650391A21.8875 21.8875 0 0 0 164.96875 48.761719A21.8875 21.8875 0 0 0 164.81445 48.761719z M251.06836 68.087891C250.02461 67.987891 248.125 68.325 244.25 69C221.6 72.95 206.60039 81.598828 193.40039 98.298828C191.95039 100.09883 185.99922 108.40039 180.19922 116.65039C171.29922 129.30039 169.45 131.69883 168.5 131.54883C166.9 131.39883 160.80039 128.64961 156.40039 126.09961C151.60039 123.34961 146.35039 117.84961 144.15039 113.34961C142.15039 109.34961 141.35 106.15 139.75 96C138.7 89.3 138.20039 87.299609 136.90039 84.849609C134.80039 80.949609 133.15039 79.798828 129.15039 79.548828C123.55039 79.198828 118.90078 82.349219 116.05078 88.449219C114.30078 92.149219 114.25039 98.899609 115.90039 104.34961C117.45039 109.24961 121.9 117.94883 125 122.04883C129.65 128.19883 134.49922 132.2 141.19922 135.5C146.99922 138.3 153.75 140.45 159.25 141.25L161.69922 141.59961L159.05078 144.04883C152.05078 150.44883 136.95078 156.09922 119.55078 158.69922L114.80078 159.40039L110.80078 156.84961C105.85078 153.64961 98.950391 150.4 89.400391 146.75C80.250391 143.25 77.15 142.44922 73 142.44922C68.5 142.44922 66.249219 143.19883 63.699219 145.54883C60.549219 148.44883 58.800781 152.34961 58.800781 156.59961L58.800781 160L55.75 159.69922C45.8 158.64922 21.049219 155.19961 15.449219 154.09961C14.299219 153.89961 14.049609 154.05 13.599609 155.5C12.299609 159.6 12.3 159.59883 17 160.54883C25.95 162.34883 48.099609 165.20039 58.099609 165.90039L63.900391 166.25L67.849609 168.84961C72.899609 172.14961 74.599219 172.85 87.199219 176.75C92.999219 178.55 98.850391 180.64961 100.15039 181.34961C102.65039 182.69961 106.19961 185.99883 107.34961 188.04883C109.44961 191.84883 106.35 198.20039 97 209.40039C91.75 215.70039 75.950391 233.29961 66.150391 243.84961C63.050391 247.19961 60.5 250.15 60.5 250.5C60.5 252.15 67.1 248.89961 87.75 237.09961C103.2 228.24961 108.2 224.7 115.25 217.75C122.25 210.85 126.7 205.1 129.5 199.25C135.25 187.25 134.00039 178.90039 124.90039 168.65039C123.30039 166.85039 122 165.24883 122 165.04883C122 164.84883 125.05078 164.05 128.80078 163.25C140.75078 160.7 153.09922 155.99961 159.94922 151.34961C161.19922 150.44961 163.95 148.15039 166 146.15039L169.80078 142.5L188.75 142C206.75 141.55 211 141.14922 211 139.94922C211 139.39922 209.55 139.09922 202 138.19922C191.9 136.99922 176.5 134.14883 176.5 133.54883C176.5 132.49883 193.24961 108.39961 198.34961 102.09961C202.74961 96.649609 210.35039 89.299609 214.40039 86.599609C219.10039 83.449609 225.4 80.55 231.75 78.5C238.3 76.4 245.40078 74.798828 247.05078 75.048828C247.90078 75.148828 249.34961 78.499219 256.09961 96.199219C270.74961 134.64922 278 154.04922 278 154.69922C278 155.34922 269.09922 161.34961 265.19922 163.34961L263.15039 164.40039L257.90039 160.29883C255.05039 158.04883 245.89961 150.85 237.59961 144.25C218.44961 129.05 219.30039 129.65 217.65039 130.25C216.95039 130.5 216.14961 131.05 215.84961 131.5C214.79961 133.15 215.95 134.84922 220.75 138.69922L225.5 142.5L225.5 175.84961L225.5 209.25L226.94922 210.09961C227.74922 210.54961 228.74922 210.94922 229.19922 210.94922C231.14922 210.94922 231.25 209.84883 231.5 178.04883L231.75 147.40039L239.75 153.84961C244.15 157.39961 251.19922 162.99961 255.44922 166.34961L263.09961 172.40039L267.19922 169.90039C276.09922 164.40039 285.49922 158.15039 285.69922 157.65039C285.84922 157.30039 285.05 154.75039 284 151.90039C281.4 144.75039 253.75 72.148828 252.75 69.798828C252.3 68.723828 252.11211 68.187891 251.06836 68.087891z"/></svg>
