<svg version="1.1" xmlns="http://www.w3.org/2000/svg" width="1024" height="1024" viewBox="0 0 1024 1024"><path d="M0 922C0 897 0 897 7 888C27 862 42 839 57 812C69 787 76 769 78 752C79 742 81 716 82 681C84 617 88 592 97 573C108 550 121 541 145 539C155 539 155 539 159 542C167 547 175 559 179 573C181 581 181 603 179 619C175 656 160 721 149 754C141 780 129 807 115 829C91 870 51 912 9 941L0 947L0 922Z M144 884L143 883L154 874C160 869 179 853 196 840C237 807 251 795 272 775C288 758 298 747 302 738C305 733 304 728 300 720C295 710 286 701 238 664C217 647 202 631 194 616C191 610 191 607 190 601C190 588 194 576 201 570C213 562 234 562 259 570C277 576 298 591 320 615C355 653 377 703 373 735C372 747 368 758 363 765C353 780 326 803 295 821C253 846 221 861 173 877C148 885 147 886 144 884Z M643 505C640 498 633 481 631 476L628 471L623 471C621 471 610 472 600 473C562 476 502 473 443 467C400 462 374 453 360 439C351 430 347 422 347 414C347 404 350 400 359 396C370 390 379 388 394 388C414 388 424 391 480 413C512 426 527 432 544 435C556 437 617 445 618 444L618 443L613 430L608 417L608 416L609 416L613 417C615 418 623 422 631 425C661 439 664 440 667 440C672 439 673 438 746 405C758 400 772 394 778 391C788 386 808 378 832 367C838 364 846 360 851 358C856 356 864 352 871 349C877 346 889 341 898 337C906 333 918 328 925 325C931 322 939 318 944 316C949 314 958 310 964 307C970 304 979 300 983 299C987 297 995 293 1001 290C1007 287 1013 285 1013 285C1014 285 1015 287 1016 289L1018 292L1015 294C1013 295 1011 296 1011 296C1010 296 1005 298 998 301C988 306 955 321 924 335C891 350 874 358 868 361C858 365 840 373 831 377C826 379 817 383 812 386C807 388 797 392 791 395C785 398 778 401 776 402C759 410 752 413 741 418C728 423 715 429 701 436C696 438 688 442 683 444C677 446 672 449 671 450C668 452 667 454 655 483C650 496 646 507 645 507L644 508L643 505Z M166 351C146 347 122 334 94 310C58 282 41 249 34 200C32 189 32 159 34 147C38 114 50 80 66 57C73 47 84 34 87 34L90 33L88 38C87 41 83 53 78 65C72 79 69 88 68 94C65 116 65 150 69 169C72 183 75 193 82 206C87 216 88 218 96 227C107 237 119 246 138 255C181 276 190 280 198 286C212 297 220 310 219 320C217 333 211 342 199 348C188 353 178 354 166 351Z M330 343C316 339 304 333 294 323C269 298 264 261 282 230C287 222 299 210 308 205C319 198 329 196 343 195C357 195 366 196 378 202C397 211 409 225 416 245C430 284 408 328 368 341C359 344 339 345 330 343Z"/><path d="M53 905C54 903 56 902 56 902L56 902L54 905C53 906 51 907 51 907L51 907L53 905Z M69 889C70 887 72 886 72 886L72 886L70 889C69 890 67 891 67 891L67 891L69 889Z M257 789C257 788 259 787 259 787L259 787L258 789C257 790 255 791 255 791L255 791L257 789Z M285 761C285 760 286 760 287 759L289 758L287 759C286 760 286 761 285 761L285 761L285 761Z M373 727L373 724L374 725C374 726 374 728 374 729L373 731L373 727Z M80 719L80 718L81 719L81 720L81 721L80 721L80 719Z M288 705L286 702L289 704C291 706 292 708 292 708L292 708L292 708C292 708 290 707 288 705Z M81 696L81 694L82 695C82 695 82 697 82 697L81 699L81 696Z M82 667L82 666L83 667L83 668L83 669L82 669L82 667Z M83 646L83 645L84 646L84 647L84 648L83 648L83 646Z M311 607L310 605L312 606C313 607 314 608 314 609L314 609L314 609C313 609 312 608 311 607Z M225 563L226 563L227 563L227 564L225 564L224 564L225 563Z M110 553C111 551 113 550 113 550L113 550L111 553C110 554 108 555 108 555L108 555L110 553Z M163 545L161 543L163 545C165 546 166 547 166 548L166 548L166 548C165 548 164 547 163 545Z M644 507C643 507 643 506 643 506L643 505L644 506L645 506L648 500L650 494L651 494L651 495L648 501C645 508 645 508 644 507Z M637 492L633 482L633 481L634 481L638 491L642 501L642 502L641 502L637 492Z M651 493C651 492 651 491 652 490L653 489L653 490C653 490 653 491 652 492L651 494L651 493Z M654 485C654 484 654 483 655 482L656 481L656 482C656 482 656 483 655 484L654 486L654 485Z M656 479C657 478 658 476 659 473L660 469L661 469L661 470L659 475L656 481L656 479Z M629 472L628 470L629 471C630 473 631 474 631 474L631 475L631 475L630 475L629 472Z M532 473L533 473L534 473L534 474L532 474L531 474L532 473Z M585 473L586 473L587 473L587 474L585 474L584 474L585 473Z M511 472L512 472L513 472L513 473L511 473L510 473L511 472Z M661 468C661 467 661 466 662 465L663 464L663 465C663 465 663 466 662 467L661 469L661 468Z M664 461C664 460 665 458 666 457L667 455L667 456C667 456 666 458 666 459L664 462L664 461Z M667 453C667 452 671 448 672 448L672 448L670 451C669 452 667 454 667 454L667 454L667 453Z M618 444L618 442L619 442L619 443L618 444L617 446L618 444Z M682 444C683 443 685 442 686 442L687 442L684 444C683 444 681 445 681 445L680 445L682 444Z M617 439C616 439 616 438 616 437L616 437L617 438L618 440L618 441L617 441L617 439Z M667 440C669 439 674 438 677 437L682 434L683 434L683 435L677 437C674 439 669 440 667 441L663 441L667 440Z M656 438L654 436L655 436C655 436 657 437 658 438L661 439L660 439C659 439 657 438 656 438Z M698 436C698 436 709 431 710 431L711 431L705 434C701 436 698 437 698 437L698 437L698 436Z M615 434C614 434 614 433 614 432L614 432L615 433L616 435L616 436L615 436L615 434Z M649 435L647 433L648 433C648 433 650 434 651 435L654 436L653 436C652 436 650 435 649 435Z M687 432C688 431 689 431 690 431L691 431L689 432C688 433 687 433 687 433L686 433L687 432Z M636 429C633 427 630 426 630 426L630 425L635 427C638 429 642 430 643 431L645 432L644 432C643 432 640 431 636 429Z M612 427L610 423L610 422L611 422L612 426L614 430L614 431L613 431L612 427Z M695 429C697 427 700 426 701 426L702 426L697 429C695 430 692 431 692 431L691 431L695 429Z M716 428C719 426 722 425 723 425L724 425L718 428C715 430 712 431 712 431L711 431L716 428Z M704 425C704 424 708 423 711 421L718 418L718 419C718 419 705 425 704 425L704 425L704 425Z M727 423C728 422 729 422 730 422L731 422L729 423C728 424 727 424 727 424L726 424L727 423Z M617 420C613 418 610 417 610 417L609 417L609 419L610 422L609 420C609 419 608 418 608 417L608 416L609 416C610 416 614 418 618 419L625 423L624 423C623 423 620 422 617 420Z M734 420C736 419 738 418 739 418L740 418L736 420C734 421 732 422 732 422L731 422L734 420Z M743 416C744 415 745 415 746 415L747 415L745 416C744 417 743 417 743 417L742 417L743 416Z M727 414C728 413 729 413 730 413L731 413L729 414C728 415 727 415 727 415L726 415L727 414Z M750 414C750 413 753 412 756 410L762 407L763 407L763 408L756 411L750 414L750 414Z M747 405C749 404 751 403 752 403L753 403L749 405C747 406 745 407 745 407L744 407L747 405Z M765 406C766 405 767 405 768 405L769 405L767 406C766 407 765 407 765 407L764 407L765 406Z M770 403C772 403 773 402 773 402L774 402L774 403C773 403 772 404 771 404L769 405L770 403Z M352 400C352 399 354 398 354 398L354 398L353 400C352 401 350 402 350 402L350 402L352 400Z M758 400C759 399 760 399 761 399L762 399L760 400C759 401 758 401 758 401L757 401L758 400Z M778 400C779 399 780 399 781 399L782 399L780 400C779 401 778 401 778 401L777 401L778 400Z M762 399C762 398 765 397 768 396L773 393L773 393C773 394 763 399 762 399L762 399L762 399Z M785 397C786 396 787 396 788 396L789 396L787 397C786 398 785 398 785 398L784 398L785 397Z M789 396C789 395 790 394 792 393L795 392L796 392L796 393L792 394L789 396L789 396Z M799 391C800 390 802 389 803 389L804 389L801 391C800 391 798 392 798 392L797 392L799 391Z M780 390C781 389 782 389 783 389L784 389L782 390C781 391 780 391 780 391L779 391L780 390Z M784 389C784 388 786 388 788 387L791 385L791 385C791 386 785 389 784 389L784 389L784 389Z M810 386C814 384 817 382 818 382L819 382L812 386C808 387 805 389 805 389L804 389L810 386Z M392 387C393 387 395 387 396 387L398 388L394 388L391 388L392 387Z M793 384C794 383 795 383 796 383L797 383L795 384C794 385 793 385 793 385L792 385L793 384Z M800 381C801 380 802 380 803 380L804 380L802 381C801 382 800 382 800 382L799 382L800 381Z M804 380C804 379 806 379 808 378L811 376L811 376C811 377 805 380 804 380L804 380L804 380Z M828 378C830 376 833 375 834 375L835 375L830 378C828 379 825 380 825 380L824 380L828 378Z M822 371C825 369 828 368 829 368L830 368L824 371C821 373 818 374 818 374L817 374L822 371Z M849 368C853 366 858 364 859 364L862 363L852 367C847 370 842 372 842 372L842 372L849 368Z M843 362C845 360 848 359 849 359L850 359L845 362C843 363 840 364 840 364L839 364L843 362Z M865 360C867 360 868 359 868 359L870 359L868 361C866 361 865 362 865 362L864 362L865 360Z M851 358C852 357 853 357 854 357L855 357L853 358C852 359 851 359 851 359L850 359L851 358Z M872 358C873 357 875 356 876 356L877 356L874 358C873 358 871 359 871 359L870 359L872 358Z M862 353C865 351 868 350 869 350L870 350L864 353C861 355 858 356 858 356L857 356L862 353Z M880 354C882 353 884 352 885 352L886 352L882 354C880 355 878 356 878 356L877 356L880 354Z M873 348C874 347 875 347 876 347L877 347L875 348C874 349 873 349 873 349L872 349L873 348Z M879 346L879 345L881 345L882 344L881 345C881 346 880 346 880 346L879 346L879 346Z M902 345C902 344 903 343 905 342L908 341L909 341L909 342L905 343L902 345L902 345Z M892 340C893 339 895 338 896 338L897 338L894 340C893 340 891 341 891 341L890 341L892 340Z M912 340C913 339 915 338 916 338L917 338L914 340C913 340 911 341 911 341L910 341L912 340Z M901 336C903 334 906 333 907 333L908 333L903 336C901 337 898 338 898 338L897 338L901 336Z M918 338C918 337 920 336 923 334L928 332L929 332L929 333L923 335L918 338L918 338Z M914 329L921 326L922 326L922 327L916 330C912 332 909 333 908 333L908 333L914 329Z M931 331C932 330 933 330 934 330L935 330L933 331C932 332 931 332 931 332L930 332L931 331Z M942 326C945 324 948 323 949 323L950 323L944 326C941 328 938 329 938 329L937 329L942 326Z M295 324L294 323L295 324C296 325 297 325 297 326L297 326L297 326C296 326 296 325 295 324Z M398 323C399 321 401 320 401 320L401 320L399 323C398 324 396 325 396 325L396 325L398 323Z M935 320C938 318 941 317 942 317L943 317L937 320C934 322 931 323 931 323L930 323L935 320Z M959 318C963 316 968 314 969 314L970 314L960 319C955 321 950 323 950 323L950 323L959 318Z M290 319L289 318L290 319C291 320 292 320 292 321L292 321L292 321C291 321 291 320 290 319Z M956 311C958 309 961 308 962 308L963 308L958 311C956 312 953 313 953 313L952 313L956 311Z M978 310L979 309L980 309L980 310L978 310L977 311L978 310Z M964 307C965 306 966 306 967 306L968 306L966 307C965 308 964 308 964 308L963 308L964 307Z M984 307C985 306 986 306 987 306L988 306L986 307C985 308 984 308 984 308L983 308L984 307Z M86 304L85 303L86 304C87 305 88 305 88 306L88 306L88 306C87 306 87 305 86 304Z M968 306C968 305 970 304 973 303L977 301L977 301C977 302 969 306 968 306L968 306L968 306Z M993 303C993 303 996 302 1000 300L1006 297L1006 297L1007 298L1000 301L993 304L993 303Z M979 300C980 299 981 299 982 299L983 299L981 300C980 301 979 301 979 301L978 301L979 300Z M1010 296C1010 296 1012 294 1014 293L1018 291L1018 292C1018 292 1012 296 1011 296L1010 296L1010 296Z M205 293L204 291L206 292C207 293 208 294 208 295L208 295L208 295C207 295 206 294 205 293Z M995 293C997 292 999 291 1000 291L1001 291L997 293C995 294 993 295 993 295L992 295L995 293Z M72 290L71 289L72 290C73 291 74 291 74 292L74 292L74 292C73 292 73 291 72 290Z M1006 288C1009 286 1012 285 1013 285L1015 285L1015 287L1016 288L1015 287C1014 286 1012 286 1007 288C1004 290 1001 291 1001 291L1001 291L1006 288Z M420 272L420 271L421 272L421 273L421 274L420 274L420 272Z M420 265L420 264L421 265L421 266L421 267L420 267L420 265Z M401 219L400 218L401 219C402 220 403 220 403 221L403 221L403 221C402 221 402 220 401 219Z M32 178L32 175L33 176C33 177 33 179 33 180L32 182L32 178Z M32 170L32 167L33 168C33 169 33 171 33 171L32 173L32 170Z M65 136L65 132L66 134C66 135 66 137 66 138L65 141L65 136Z M65 126L65 123L66 124C66 125 66 127 66 127L65 129L65 126Z"/></svg>
