<svg version="1.1" xmlns="http://www.w3.org/2000/svg" width="300" height="300" viewBox="0 0 300 300"><path d="m253.457 250.646c-2.139 2.158-4.00247 4.48242-7.31937 4.52022-2.60558-0.28486-5.23263-1.32122-7.20263-3.09422-3.002-2.679-4.452-6.536-6.031-10.126-9.207-23.041-18.124-46.204-27.417-69.205-0.98-0.765-1.912-1.616-2.423-2.767-4.739-8.295-8.141-17.403-9.513-26.876-1.007-8.525 0.534-17.064 1.223-25.552 0.698-9.297 4.541-18.222 3.958-27.632-0.465-5.597-7.191-10.814-12.477-7.52-4.813 2.859-6.553 8.594-7.634 13.747-2.958 13.518-4.219 27.859-0.364 41.333 1.285 5.05 3.322 10.144 6.833 14.057 0 0-2.228-2.396-3.097-3.881-3.351-6.261-6.573-12.739-7.768-19.811-1.343-7.923-2.676-15.853-3.879-23.797-1.334-10.685 3.148-22.2-2.146-32.245-1.129-3.112-5.0597-5.125939-7.199-5.158-2.64048 0.03431-6.516 1.992-8.313 4.909-4.042 6.015-3.689 13.611-3.507 20.533 1.083 13.666 2.625 27.612 8.266 40.264 6.123 14.158 17.006 25.562 28.53 35.518 4.197 3.786 9.396 6.062 14.132 9.019 1.365 2.396 2.137 5.075 3.215 7.608 8.283 21.152 16.763 42.23 24.951 63.42 3.362 7.174 7.48724 13.1659 18.76248 13.02682 5.92649-0.005 10.42043-3.36763 11.29652-8.08882 0.15169-2.15097-2.915-3.824-4.877-2.202z"/><path d="m120.854 137.213c3.752 14.995 15.982 26.416 18.466 41.854 1.219 8.282 2.501 16.725 1.308 25.092-0.936 9.119-4.408 17.69-8.198 25.953-6.081 12.607-12.884 25-21.621 35.975 3.03883-1.10007 5.48554-3.66454 7.84254-5.74054 7.31758-6.67358 20.62446-18.18546 27.14046-30.46046 6.222-13.041 12.829-26.342 14.376-40.908 1.047-11.117-1.258-22.181-3.715-32.967-1.617-6.109-2.768-12.383-5.377-18.178-2.924-7.364-7.121-14.738-14.116-18.907-4.671-2.372-11.351-3.39-14.966 1.332-2.12955 2.45207-1.99902 5.64267-2.41315 8.65911-0.0395 2.51092 0.39933 5.28413 1.27315 8.29589z m-9.47-22.693c-2.994-4.947-7.3125-10.934-13.57-9.929-4.2415 0.681-6.824 5.589-7.461 9.97-1.774 9.7 1.794 19.232 3.958 28.56 1.735 6.157 2.583 12.509 3.494 18.826 0.26 2.063 0.119 4.589-1.72 5.924-8.338 7.651-20.338 8.531-31.092 8.967-8.99 0.483-17.462-2.938-26.161-4.544 1.32 3.071 3.406161 4.89345 6.069856 7.31445 4.722797 4.34948 11.329144 6.48455 17.306144 8.28755 10.212 3.186 21.099 4.601 31.746 3.241 8.032-1.052 14.997-5.968 20.222-11.941 3.676-4.605 4.955-10.589 5.68-16.305 0.96-9.833 0.736-19.889-1.1255-28.024s-3.7715-14.685-7.3465-20.347z"/><path d="m250.87 247.865c4.761 0 8.62-3.859 8.62-8.62s-3.859-8.62-8.62-8.62-8.62 3.859-8.62 8.62 3.859 8.62 8.62 8.62z m0-11.24c1.444 0 2.62 1.176 2.62 2.62s-1.176 2.62-2.62 2.62-2.62-1.176-2.62-2.62 1.176-2.62 2.62-2.62z"/><circle cy="55.365002" cx="199.408" r="22"/></svg>
