<svg version="1.1" xmlns="http://www.w3.org/2000/svg" width="300" height="300" viewBox="0 0 300 300"><path d="M231.584,18.897c10.576-1.24,21.188,6.127,23.729,16.472c2.828,10.501-4.086,22.324-14.439,25.375c-4.85,1.695-10.268,1.52-15.029-0.382c-10.098-3.537-16.727-15.631-13.143-25.93C215.047,25.99,222.982,19.858,231.584,18.897z"/><path d="M114.993,59.296c13.676-0.77,27.383-0.657,41.058-1.446c5.655-0.017,11.307-0.291,16.96-0.03c9.947,0.315,20.593-1.466,29.745,3.479c3.928,1.902,6.895,7.323,3.86,11.211c-3.657,3.963-9.675,3.665-14.633,3.916c-9.424-0.27-18.925-0.904-28.109-3.167c-16.264-3.365-32.545-6.661-48.806-10.043c-3.348-0.839-7.046-0.731-10.057-2.602C108.262,59.706,111.647,59.56,114.993,59.296z"/><path d="M241.993,67.705c2.869-1.62,6.563-3.455,9.753-1.625c5.576,3.98,7.811,11.207,7.597,17.822c-0.382,11.031-4.089,21.939-10.369,31.003c-2.212,2.74-4.308,5.882-7.505,7.534c-4.186,0.862-8.59,0.106-12.498-1.53c-7.512-3.076-15.024-6.412-21.513-11.368c-5.315-3.999-11.226-7.497-15.265-12.906c4.409-0.295,8.695,1.577,13.041,2.256c7.221,2.511,15.011,2.713,22.15,5.479c2.626,0.939,5.43,1.188,8.203,1.176C237.859,92.952,237.928,79.927,241.993,67.705z"/><path d="M53.979,116.882c22.002-1.1,44.044-1.187,66.057-2.043c14.667-0.243,29.332,0.094,44.004-0.027c9.477-0.167,19.34,1.331,27.5,6.431c3.228,1.99,5.513,5.746,5.188,9.595c-2.235,2.7-5.065,4.944-8.235,6.451c-8.824,4.406-19.008,3.135-28.5,2.594c-13.105-0.589-26.072-2.711-38.87-5.518c-26.03-4.873-52.097-9.554-78.143-14.347c-1.396-0.293-2.777-0.64-4.144-1.042C43.568,116.869,48.964,117.716,53.979,116.882z"/><path d="M200.682,140.523c1.581-4.031,5.158-6.773,9.263-7.905c3.833,1.291,7.512,3.648,9.087,7.546c4.743,10.266,4.092,21.89,4.91,32.909c1.142,13.003-1.377,25.911-1.623,38.894c-1.471,23.299-2.613,46.625-4.318,69.905c-2.004-1.309-1.764-3.907-2.375-5.929c-2.71-11.95-4.422-24.088-6.466-36.162c-3.244-19.995-6.841-39.947-9.021-60.096C198.611,166.76,195.117,152.99,200.682,140.523z"/></svg>
