<svg version="1.1" xmlns="http://www.w3.org/2000/svg" width="300" height="300" viewBox="0 0 79.374998 79.375002"><g transform="translate(0,-217.62499)"><path d="m56.818036,274.39343c-0.837848,0.12824 -1.711944,0.5853 -2.017448,1.42421 -0.494419,1.23084 0.06786,2.63044 1.030946,3.46335 -1.682223,2.40047 -3.368979,4.79839 -5.051372,7.19904 -2.086152,3.07482 -4.056002,6.22556 -6.051314,9.35964 4.205287,-3.6412 8.38047,-7.31742 12.48451,-11.07167 0.936095,-0.96291 1.84373,-1.95277 2.736783,-2.9559 1.111602,0.71649 2.338825,1.22861 3.458187,1.93064 0.445558,0.26599 0.531439,0.83498 0.507978,1.30999 -0.08889,1.9842 -0.777287,3.87029 -1.075385,5.82239 -0.33655,1.74007 -0.585317,3.49487 -0.820621,5.25135 0.762,-1.2954 1.701601,-2.48488 2.360062,-3.84007 0.921985,-2.07292 1.871146,-4.13369 2.784843,-6.20996 0.56162,-1.53246 1.062609,-3.43025 0.01291,-4.87205 -1.205619,-1.47302 -2.870316,-2.46168 -4.272608,-3.72639 -0.0418,-0.32632 0.0035,-0.66293 -0.08216,-0.98237 -0.191206,-0.55703 -0.712224,-0.88847 -1.199414,-1.16117 -0.598837,-0.23777 -1.229307,-0.0474 -1.835026,0.0289 -0.954087,-0.42122 -1.925246,-0.8405 -2.970879,-0.96997z"/><path d="m68.078845,264.48035c-0.385897,-0.007 -0.732208,0.26345 -1.005107,0.51625 -0.640482,0.67184 -0.808064,1.68234 -0.661458,2.57399 0.191283,1.63688 1.017765,3.17115 2.214848,4.29277 0.737952,0.70622 1.834605,0.92552 2.820501,0.76171 2.156656,-0.40831 4.110712,-1.73881 5.339212,-3.55069 0.548301,-0.76273 1.071033,-1.56181 1.375108,-2.45721 0.182941,-0.51981 0.137351,-1.08193 0.257869,-1.61489 -0.06147,-0.012 -0.122394,-0.0206 -0.183457,-0.0284 -0.07002,0.26518 -0.196009,0.5105 -0.353465,0.73381 -0.784286,1.11324 -1.706393,2.16592 -2.88871,2.86804 -0.936064,0.5612 -1.903474,1.13141 -2.976563,1.37769 -0.891349,0.20941 -1.51366,-0.64453 -1.87017,-1.33376 -0.388152,-1.03966 -0.326641,-2.21199 -0.843362,-3.21273 -0.220303,-0.42036 -0.592743,-0.77891 -1.057815,-0.90589 -0.05664,-0.0132 -0.112305,-0.0197 -0.167431,-0.0207z"/><path d="m57.159097,261.50688c-1.163045,-0.024 -2.345658,0.33176 -3.404439,0.77825 -0.930264,0.41691 -1.859666,0.97977 -2.522844,1.76165 -0.301451,0.35539 -0.548148,0.75615 -0.714687,1.20871 -0.511054,1.46295 -0.13161,3.06973 0.480075,4.43901 0.728761,1.10202 1.605365,2.11601 2.623611,2.96157 0.781336,0.66509 1.714667,1.11299 2.525943,1.73736 -0.866881,-0.69095 -1.245341,-1.76653 -1.853115,-2.65875 -0.629407,-1.09804 -1.175459,-2.27176 -1.375109,-3.53156 -0.0681,-0.77907 0.0059,-1.6851 0.665073,-2.21227 0.74902,-0.58181 1.728724,-0.68842 2.641182,-0.7953 0.975535,-0.1927 2.071793,-0.0498 2.919719,-0.66405 0.335389,-0.30493 0.759982,-0.64311 0.772563,-1.13791 -0.06627,-0.70291 -0.519044,-1.35563 -1.197859,-1.59163 -0.506952,-0.19507 -1.031454,-0.28416 -1.560113,-0.29508z"/><path d="m65.321527,254.91055a3.8099989,3.8099989 0 0 0 -3.810106,3.8101 3.8099989,3.8099989 0 0 0 3.810106,3.81011 3.8099989,3.8099989 0 0 0 3.810103,-3.81011 3.8099989,3.8099989 0 0 0 -3.810103,-3.8101z"/><path d="m15.016219,282.27229c-0.549024,-2.7e-4 -1.188317,0.19472 -1.885738,0.58892 -2.73539,1.57717 -5.717386,4.06625 -6.3827509,5.37234 -1.4046621,2.71075 0.9858663,4.36166 8.0338129,5.4706 1.281446,0.19714 2.340878,0.3454 2.390165,0.29611 0.02464,-0.0246 -0.837998,-0.41899 -1.971586,-0.86255 -3.844334,-1.55253 -5.692483,-2.98189 -5.248905,-4.09083 0.07393,-0.2218 1.527753,-1.03512 3.203488,-1.84834 2.513601,-1.18287 3.154427,-1.57736 3.474787,-2.21808 0.345007,-0.66537 0.369907,-0.91177 0.09883,-1.50321 -0.304961,-0.76239 -0.867342,-1.16598 -1.603584,-1.20225 -0.03579,-0.002 -0.07192,-0.003 -0.108521,-0.003z"/><path d="m20.786603,271.63825c-0.22458,0.006 -0.454414,0.0288 -0.688524,0.0688 -1.872883,0.34501 -3.129654,1.92202 -3.129654,3.9674 0,3.94292 5.594201,5.22449 7.393152,1.67586 0.616081,-1.20752 0.616081,-2.26694 0,-3.57303 -0.690007,-1.40158 -2.002913,-2.1808 -3.574974,-2.13902z"/><path d="m13.059474,241.24364c-0.293776,-0.005 -0.59176,0.0236 -0.8889,0.0882 -0.627007,0.1309 -1.240063,0.45472 -1.722375,0.89568 -0.847494,0.79237 -1.2402343,1.68115 -1.2402343,2.8318 0,1.18513 0.2893232,1.89483 1.0954753,2.71476 0.39274,0.39963 0.647701,0.58563 1.04044,0.77166 2.225532,1.0611 4.809224,-0.16532 5.415561,-2.57 0.151584,-0.58567 0.103418,-1.59163 -0.103288,-2.17041 -0.546478,-1.53478 -2.010294,-2.53493 -3.596679,-2.56166z"/><path d="m25.8959,238.18975c-0.02756,0 -0.110243,0.0414 -0.186036,0.0828 -0.310058,0.17227 -0.937067,0.59247 -1.550292,1.04722 -2.101509,1.53652 -3.472678,3.11443 -4.451086,5.1057 -0.737247,1.51584 -1.047224,2.71462 -1.853375,7.20014 -0.172256,0.96462 -0.37207,2.00522 -0.434082,2.30839l-0.117241,0.55113 -0.275564,0.0482c-0.420301,0.0758 -2.01198,0.062 -2.514963,-0.0138 -1.226454,-0.19293 -2.445995,-0.82 -3.176356,-1.63304 -0.316948,-0.3514 -0.923199,-1.17815 -1.29527,-1.7776 -0.9163949,-1.45384 -1.2609695,-1.85345 -1.8190752,-2.1084 -0.8957244,-0.40651 -1.9637701,0.10325 -2.4391919,1.17124 -0.2342674,0.51676 -0.2961709,1.52276 -0.1308063,2.09464 0.3376189,1.15756 2.0809024,2.92829 3.8654619,3.93426 0.6683475,0.37896 1.8120295,0.76491 2.5355045,0.86138 1.233342,0.17225 2.804264,0.0621 4.120291,-0.28932l0.5926,-0.15852 -0.04825,0.18604c-0.32195,1.12682 -1.780549,2.83862 -3.575196,4.29261 -3.4731701,2.70974 -8.0243263,4.95848 -11.5281451,5.95986l-0.5433777,0.19243v1.11272c0.3621636,-0.12655 0.7956794,-0.2724 1.0257125,-0.36102 5.2378722,-1.73321 7.5060715,-2.95962 10.8315093,-5.42274 2.611383,-1.92925 4.25816,-3.81025 4.885167,-5.59482 0.117134,-0.33072 0.247897,-0.66836 0.282347,-0.74414 0.07579,-0.1378 0.275609,-0.24124 3.100585,-1.55727 1.619195,-0.75103 2.914616,-1.41243 3.121321,-1.59156 0.137805,-0.12404 0.158433,-0.35832 0.02752,-0.35832 -0.04823,0 -0.565037,0.15853 -1.150705,0.34456 -1.564073,0.50298 -2.328734,0.71662 -3.444944,0.96467 -0.551215,0.11713 -1.054394,0.23426 -1.116406,0.24804 -0.172256,0.0482 -0.16526,-0.11025 0.117242,-1.6123 0.130912,-0.70969 0.365245,-1.9844 0.516829,-2.83878 0.516765,-2.82497 0.937065,-4.17543 1.736328,-5.59481 0.74414,-1.32292 1.90167,-2.61145 3.362391,-3.74145 0.875055,-0.68212 1.295206,-0.94392 1.398558,-0.88192 0.254936,0.14469 10.659229,10.54213 10.659234,10.64548 0,0.13091 -1.178287,2.00498 -1.509016,2.39772l-0.199795,0.24107 -1.433245,-0.35812c-0.792375,-0.19981 -2.85237,-0.72349 -4.574916,-1.16446 -1.722549,-0.44098 -3.245407,-0.79926 -3.390103,-0.80615 -0.633897,-0.0138 -0.792328,0.71643 -0.213553,0.96447 0.144696,0.0551 0.613228,0.19293 1.0542,0.31006 0.434085,0.11024 0.826907,0.23431 0.875141,0.28254 0.04134,0.0482 0.930198,1.95687 1.970614,4.25129 2.115288,4.65089 2.831846,6.18047 2.990323,6.35272 0.130913,0.1447 0.35142,0.15861 0.606356,0.0415 0.282501,-0.13091 0.241073,-0.59273 -0.130997,-1.37821 -0.558107,-1.17822 -3.954929,-8.70215 -3.99627,-8.85373 -0.04823,-0.14469 -0.007,-0.13796 1.109237,0.15832 2.294432,0.60635 5.615609,1.41255 5.698297,1.385 0.08957,-0.0344 2.321822,-3.42441 2.466517,-3.73446 0.04134,-0.0896 0.05535,-0.23444 0.03468,-0.32401 -0.02755,-0.0965 -0.702863,-0.81296 -1.509014,-1.60533 -0.806153,-0.79238 -3.458964,-3.41762 -5.898091,-5.83608 -2.439125,-2.41847 -4.451041,-4.39586 -4.478602,-4.39586z"/><path d="m57.702275,251.16959c2.175732,0.58465 3.469262,0.3154 7.295679,-1.51831 1.655985,-0.79359 3.434321,-1.52943 3.951891,-1.63518 1.371579,-0.28023 2.644743,0.11393 5.354518,1.65765 1.656451,0.94367 2.510814,1.32208 3.120351,1.38209 0.692226,0.0682 0.861914,0.0239 0.967965,-0.2525 0.142081,-0.37026 -0.29509,-0.80093 -0.812933,-0.80093 -0.328504,0 -1.522619,-0.59341 -3.549202,-1.76384 -1.627587,-0.93998 -2.969464,-1.38168 -4.310785,-1.36852v-1e-5c-0.702596,0.007 -1.405165,0.13858 -2.148319,0.38893 -0.593746,0.20002 -2.151843,0.89255 -3.462578,1.53905 -4.104484,2.02449 -4.911432,2.02079 -9.284317,-0.0444 -1.310735,-0.6465 -2.569046,-1.21189 -3.162792,-1.41191 -0.743154,-0.25035 -1.445723,-0.38193 -2.467681,-0.392 -1.021959,-0.0101 -2.363836,0.43162 -3.991423,1.3716 -2.026583,1.17043 -3.220698,1.76384 -3.549202,1.76384 -0.517843,0 -0.955014,0.43067 -0.812933,0.80093 0.106051,0.2764 0.275739,0.3207 0.967965,0.2525 0.609537,-0.06 1.4639,-0.43842 3.120351,-1.38209 2.709775,-1.54372 3.982939,-1.93788 5.354518,-1.65765 0.51757,0.10575 2.295906,0.84159 3.951891,1.63518 1.356828,0.64169 2.91697,1.28777 3.467036,1.43557z"/><path d="m60.378858,241.24364c-3.124025,0 -5.020521,2.90545 -3.667995,5.61962 0.500303,1.00398 1.165953,1.58967 2.244439,1.97507 1.47718,0.52788 3.072715,0.10438 4.19548,-1.11369 1.265914,-1.37334 1.425551,-3.02516 0.447063,-4.62898 -0.61732,-1.01185 -2.077664,-1.85202 -3.218987,-1.85202z"/><path d="m49.57971,237.24815c-0.754182,-0.0243 -1.393063,0.42882 -3.045164,2.09445 -2.168943,2.1867 -5.094893,6.16542 -4.886716,6.64494 0.101758,0.23438 1.184547,-0.38968 2.974043,-1.71385 3.359645,-2.48604 4.914265,-3.55975 5.066745,-3.49959 0.08882,0.035 0.660659,1.22665 1.270658,2.64809 1.153613,2.68818 1.480558,3.14539 2.552171,3.56819 0.789371,0.31145 1.359326,0.0672 1.836127,-0.78696 0.310544,-0.5563 0.304339,-0.75321 -0.06065,-1.90144 -0.453204,-1.42573 -1.747438,-3.9287 -2.581626,-4.99271 -0.812999,-1.037 -2.151817,-1.96025 -2.97288,-2.05007 -0.05164,-0.006 -0.102425,-0.009 -0.152704,-0.011z"/><path d="m40.74742,283.5375c-0.520113,-0.47952 -1.085972,-0.87185 -1.257469,-0.87185 -0.171498,0 -2.478876,0.30087 -5.127509,0.66861 -3.481768,0.4834 -5.413252,0.64943 -6.972949,0.5994 -2.031316,-0.0652 -2.182565,-0.10102 -2.59092,-0.61412 -0.701025,-0.88084 -0.74535,-1.57963 -0.152225,-2.39991 0.629254,-0.87025 1.749331,-1.14232 3.510442,-0.85269 0.667459,0.10978 3.555122,0.44018 6.417028,0.73425l5.203465,0.53465 0.62684,-0.53389 0.62684,-0.53389h4.9735c4.855904,0 4.9735,0.0103 4.9735,0.43592 0,0.41704 -0.117596,0.43593 -2.713741,0.43593 -2.700012,0 -2.715199,0.002 -3.002674,0.54491 -0.216168,0.40767 -0.442836,0.5449 -0.900049,0.5449 -0.504759,0 -0.755978,0.18967 -1.443506,1.08982 -0.457819,0.5994 -0.920708,1.08981 -1.028655,1.08981 -0.107942,0 -0.621805,-0.39233 -1.141918,-0.87185z"/><path d="m10.92754,263.58119c-1.3450748,-0.68198 -5.6590923,-1.76136 -6.8611751,-1.72084 -1.2238543,0.0414 -1.9623854,0.53833 -2.3795627,1.58688 -0.2190913,0.56069 -0.2551087,0.95905 -0.1238399,1.4487 0.3727994,0.99289 1.9388212,1.83182 2.7896013,2.12102 0.7843682,0.24996 1.8218629,0.4465 3.038456,0.57112 0.7049336,0.0671 1.5752464,0.23205 1.9468753,0.36075 0.8605151,0.2984 1.6112921,0.95239 1.7140451,1.49117 0.06074,0.31153 -0.321041,1.58543 -0.690987,2.29623 -0.345257,0.67489 -3.5832021,5.63558 -5.0108372,7.67631 -0.5727596,0.81723 -1.0581822,1.53058 -1.0696397,1.5703 -0.013367,0.0463 0.034759,0.10325 0.1009613,0.12235 0.1588873,0.0458 0.5731557,-0.22192 1.772672,-1.12371 0.5139513,-0.38958 1.0468716,-0.79522 1.1824582,-0.89236 0.1289655,-0.099 0.5196795,-0.40945 0.8639278,-0.68306 0.3376242,-0.27551 1.1000875,-0.88026 1.6852024,-1.34255 1.6585992,-1.30003 2.5677142,-2.26406 3.6648542,-3.85511 0.804587,-1.17346 1.154681,-1.88999 1.482225,-3.05046 0.571061,-2.02963 0.269315,-3.22101 -1.152674,-4.55623 -0.267233,-0.24201 -0.633646,-0.56283 -0.820672,-0.71 -0.588115,-0.58637 -1.389055,-0.90381 -2.131891,-1.31051z"/><path d="m50.305192,228.02157c-4.466051,-0.2795 -8.855313,-0.47922 -12.943708,-0.96092 -0.643535,-0.0824 -1.312863,-0.0491 -1.939983,0.13096l-2e-5,-2.3e-4c-0.627118,0.18006 -1.212252,0.50718 -1.687192,1.01104 -0.47114,0.46966 -0.306814,1.3195 0.127501,1.76867 1.046007,1.29045 2.7397,1.20807 4.150106,1.17932 4.262998,-0.83434 8.311703,-1.52126 12.310205,-2.19892 0.0113,0.79333 0.03571,1.58671 0.09966,2.37777 0.862026,-0.81188 1.586783,-1.79415 2.456847,-2.59182l20.72858,-1.45664 -0.04262,-0.58836 -20.190833,1.42079c-0.228364,-0.0222 -0.502666,0.0649 -0.688165,-0.13083l-2.418519,-2.37274c0,0 0.02633,1.60796 0.03814,2.41191z"/><path d="m29.402431,218.53549c-0.08384,-7e-5 -0.167669,0.002 -0.251341,0.008 -2.138755,0.13809 -3.760599,1.98387 -3.622454,4.12262 0.138091,2.13867 1.983744,3.76048 4.122423,3.62245 2.138675,-0.13809 3.760488,-1.98374 3.622454,-4.12242 -0.131762,-2.04134 -1.825499,-3.62985 -3.871082,-3.63059z"/><path d="m5.7678119,240.3532c2.1598873,-1.47345 4.2761251,-3.02281 6.4510891,-4.47884 3.24305,-1.58944 5.147322,-2.69227 8.25487,-3.2284 1.46763,-0.25302 3.128183,-0.54232 4.068852,-1.16508 1.159867,-0.89447 1.078953,-2.78528 -0.277521,-3.17258 -3.010372,-0.50596 -6.597416,1.40547 -8.719134,2.72753 -3.923145,2.25439 -7.0676803,6.04465 -9.7781561,9.31737z"/></g></svg>
