<svg version="1.1" xmlns="http://www.w3.org/2000/svg" width="300" height="300" viewBox="0 0 300 300"><circle cx="171.898" cy="131.342" r="22"/><path d="M141.969,3.563c-1.727,0.022-3.452,0.18-5.188,0.531c-6.33,1.165-12.699,6.34-12.25,13.313c-4.633,1.885-8.379,5.722-10.375,10.281c-2.163,4.087-1.238,9.031-0.219,13.313c6.708,12.674,20.293,20.301,33.875,23.531c-5.766,16.871-11.234,33.844-16.094,51c-1.861,7.136-4.982,14.098-5.156,21.563c-0.147,4.742,4.079,10.143,9.188,8.906c3.312-0.359,7.203-1.355,8.438-4.875c2.039-6.009,2.57-12.419,3.563-18.656c2.541-18.688,5.031-37.417,5.719-56.281c18.66,6.512,38.438,8.099,57.875,10.813c14.616,2.117,29.255,6.042,42.094,13.531c6.826,3.983,12.063,10.998,12.813,19c1.043,8.625-2.887,16.893-8.281,23.375c-14.352-6.947-32.686-7.289-46.156,1.875c-3.262,1.975-4.891,5.56-6.063,9.031c0.434,2.906,1.414,5.686,3.563,7.781c3.323,4.644,9.697,3.931,14.719,4.031c12.918-0.854,25.533-6.322,34.906-15.281c9.277,6.378,15.459,16.825,16.875,27.969c2.045,10.749-0.221,21.737-3.875,31.875c-4.873,11.08-11.389,22.048-21.5,29.094c-7.632,5.585-17.178,7.166-26.156,9.313c-8.947-0.114-17.777-2.359-26.688-3.219c-0.214,1.998-0.386,3.995-0.563,6c5.643,0.871,11.328,1.39,16.938,2.469c5.32,1.05,10.889,1.235,16.156-0.219c10.659-2.331,21.895-5.726,29.438-14.094c16.596-15.312,25.418-38.821,22.625-61.25c-1.863-12.558-8.216-25.113-18.969-32.281c6.936-8.014,11.025-19.034,8.75-29.625c-1.521-9.97-8.994-18.015-17.688-22.563c-16.012-8.646-34.188-11.958-52.031-14.375c-16.256-1.916-32.586-4.088-48.094-9.563c1.518-5.808,2.256-11.79,3.5-17.656c5.088-0.163,10.48,0.088,15.188-2.156c3.66-2.647,6.693-8.187,3.688-12.375c-3.484-4.685-9.016-7.332-14.438-9.094c0.333-3.184,0.971-6.322,1.531-9.469C156.816,6.143,149.453,3.463,141.969,3.563z M141.813,9.594c6.105-0.015,11.897,2.477,17.625,4.406c-0.199,0.881-0.583,2.65-0.781,3.531c-9.143-2.138-18.669-3.493-28-1.781c1.188-3.668,5.065-5.28,8.531-6C140.072,9.636,140.94,9.596,141.813,9.594z M140.344,21.125c5.825-0.022,11.666,1.011,17.281,2.531c-0.697,3.92-1.367,7.846-2.156,11.75c-5.146-1.04-10.128-2.828-14.781-5.25c-3.354-2.068-5.812-5.252-8.25-8.281C135.061,21.366,137.696,21.135,140.344,21.125z M126.094,23.375c3.172,4.53,6.559,9.138,11.313,12.125c5.386,2.714,11.079,4.933,17.031,6.031c-0.998,5.854-2.215,11.688-4.438,17.219c-11.719-3.044-23.675-8.973-30.063-19.719C117.375,33.073,120.527,26.261,126.094,23.375z M160.781,24.813c4.275,1.371,8.65,3.422,11.188,7.313c-2.578,4.408-7.993,3.351-12.25,4.094c-0.253-0.202-0.779-0.578-1.031-0.781C159.531,31.931,160.154,28.364,160.781,24.813z M236.656,133.969c5.589,0.104,11.178,1.252,16.344,3.25c-8.375,7.693-19.762,11.51-30.969,12.313c-3.301,0.005-7.603,0.029-9.219-3.469c-1.947-2.72,1.148-5.452,3.281-6.844C222.299,135.437,229.471,133.835,236.656,133.969z"/><path d="M26.875,19.865c1.033,1.097,2.055,2.257,2.59,3.689c2.623,6.139,4.682,12.498,7.192,18.682c8.121,18.766,15.689,37.762,23.44,56.681c3.069,8.526,6.15,17.066,8.429,25.85c1.655,6.38,3.931,12.832,3.276,19.527c-0.287,4.141-2.557,8.327-6.235,10.367c-3.233,0.598-7.218,0.571-9.566-2.101c-4.862-5.591-6.784-12.95-9.082-19.824c-4.274-15.289-6.303-31.056-9.018-46.666c-3.203-21.202-7.781-42.175-11.076-63.361C26.837,21.998,26.862,20.576,26.875,19.865z"/><path d="M64.414,163.08c1.933-2.306,4.764-3.913,7.769-4.255c2.963,0.175,5.536,2.08,7.232,4.41c3.088,6.468,3.131,13.788,3.062,20.804c-0.417,18.48-3.661,36.725-6.251,54.985c-2.028,15.967-3.967,31.944-6.016,47.908c-0.535,3.446-0.624,7.051-2.188,10.243c-2.14-5.116-1.498-10.803-2.067-16.198c-1.25-18.156-3.523-36.224-4.904-54.369c-1.581-15.778-2.342-31.68-1.269-47.52C60.001,173.495,61.091,167.714,64.414,163.08z"/></svg>
