<svg version="1.1" xmlns="http://www.w3.org/2000/svg" width="300" height="300" viewBox="0 0 300 300"><g stroke="none"><path d="m263.39869,124.18301a21.568628,20.915033 0 1 1 -43.13726,0 21.568628,20.915033 0 1 1 43.13726,0z" transform="matrix(1.030303,0,0,1.0624893,-6.0209939,-3.8779387)"/><path d="m195.77744,154.06407c0,0 16.74674,-0.79746 19.13913,-0.39873 2.3924,0.39873 6.37972,1.99366 6.37972,5.98098 0,3.98732 -1.59493,7.57591 -8.37338,9.17084 -6.77844,1.59492 -21.1328,-3.58859 -21.1328,-3.58859l3.98733,-11.1645z"/><path d="m268.34667,157.65266c-5.96019,0.12495 -9.62652,6.56327 -9.00617,12.41368 0.89849,8.47353 -7.96166,16.28248 -16.58078,16.39317 -13.69828,2.21177 -27.98902,-1.40139 -39.57172,-8.87202 -4.23461,-1.15148 -6.79346,-5.83389 -11.40884,-5.97201 -0.23435,5.13495 4.55365,8.18218 7.68842,11.48428 14.99402,15.52487 38.79195,22.6004 59.60194,16.11924 14.06281,-5.29079 22.4214,-22.75963 16.82829,-36.88888 -1.41715,-2.71752 -4.28495,-5.21433 -7.55114,-4.67746z"/></g><g fill="none" style="stroke-width:7;stroke-linecap:butt;stroke-linejoin:miter;stroke-opacity:1;stroke-miterlimit:4;stroke-dasharray:none"><path d="m-8.4957653,232.6874c0,0 162.0730553,4.57464 326.1066853,-22.2197 164.03362,-26.79433 162.07306,-25.48729 162.07306,-25.48729"/><path d="M-5.8816836,291.50423C18.480938,278.04488 49.188655,274.989 74.945925,286.34572c37.844555,6.98124 48.145385,-4.3711 70.714855,-14.56317 25.76572,-11.63545 49.83876,-1.92463 72.98013,7.12408 24.59643,9.61767 52.17199,-5.50196 75.55659,-17.52378 5.53347,-2.84471 12.90453,-3.44946 19.49229,-2.55467"/><path d="M235.26734,-12.382753 179.71811,226.15219"/><path d="m96.72102,-15.650356c0,0 -83.650612,103.909745 -100.6421427,162.726586"/><path d="m45.746428,54.276328c0,0 47.053469,-13.723928 175.143472,-1.307041"/><path d="m14.377449,105.25092c0,0 100.642141,-12.416888 193.442041,-0.65352"/><path d="m184.94627,204.58602c0,0 -92.146373,-13.07041 -194.0955557,1.96056"/></g></svg>
