<svg version="1.1" xmlns="http://www.w3.org/2000/svg" width="300" height="300" viewBox="0 0 300 300"><path d="M261.675,60.491c-3.119-1.041-6.429-0.608-9.647-0.671c-34.329-0.009-68.658,0.018-102.986-0.014c-2.686,0-5.323,0.677-8.012,0.592c-15.008-0.049-30.016,0.012-45.024-0.032c-2.301,0.016-4.718-0.257-6.85,0.805c-5.391-0.579-10.764-1.362-16.168-1.778c-3.237,0.512-7.2,0.196-9.555,2.909c-4.099,4.011-4.292,10.837-1.61,15.674c2.401,2.331,5.847,3.376,9.151,3.259c9.397,0.064,18.827-0.498,28.091-2.136c14.491-1.895,28.916-4.441,43.443-6.017c3.444,8.008,9.122,15.214,16.646,19.739c8.406,5.611,19.517,5.958,28.819,2.508c3.543-2.13,6.364-5.241,9.004-8.378c5.121-6.614,9.323-14.045,11.418-22.192c17.68-0.012,35.381,0.328,53.048-0.172C261.77,63.242,261.817,61.864,261.675,60.491z M184.977,83.957c-6.2,0.523-12.957-1.975-16.703-7.13c-1.592-2.103-3.09-4.273-4.586-6.442c12.037-0.028,24.076,0.035,36.115-0.033C195.387,75.376,192.094,82.325,184.977,83.957z"/><path d="M205.453,274.778c-3.291-11.554-6.318-23.183-9.826-34.67c-8.076-24.559-19.529-48.096-34.467-69.23c-4.799-5.919-8.688-12.571-14.052-18.022c-4.199-4.49-9.908-7.494-15.969-8.466c-3.709,0.545-7.37,2.164-9.404,5.464c-4.034,5.248-2.503,12.543,0.796,17.742c5.038,8.633,12.812,15.068,19.463,22.371c23.412,25.445,40.601,55.686,57.494,85.636c2.256,4.551,3.506,9.61,6.6,13.73c1.006-1.285,0.711-2.905,0.625-4.382C206.381,281.549,206.458,278.073,205.453,274.778z"/><path d="M101.417,146.612c-4.956,1.333-7.8,6.107-9.266,10.692c-2.591,7.976-1.682,16.445-1.838,24.682c0.128,32.878-8.523,64.867-16.708,96.451c-1.226,4.595-4.424,8.646-4.483,13.521c0.548,1.409,1.599-0.176,2.034-0.706c2.085-2.68,4.344-5.237,6.198-8.085c7.13-12.926,14.235-25.875,20.653-39.172c10.932-24.299,18.768-50.268,20.648-76.944c0.531-7.061-1.869-14.447-6.974-19.441C108.575,145.963,104.783,145.664,101.417,146.612z"/><circle cx="121.462" cy="35.336" r="21.875"/></svg>
