<svg version="1.1" xmlns="http://www.w3.org/2000/svg" width="300" height="300" viewBox="0 0 300 300"><path d="m187.727,35.941c10.306,-1.429 20.779,5.715 23.398,15.75 2.657,8.732 -1.39,18.617 -8.835,23.647 -5.605,3.597 -12.876,4.701 -19.155,2.274 -6.892,-2.288 -12.168,-8.365 -13.737,-15.422 -1.735,-5.236 -0.133,-10.889 2.342,-15.604 3.168,-5.918 9.472,-9.627 15.987,-10.645z"/><path d="m264.717,81.489c4.313,-10.387 9.244,-20.54 12.246,-31.412 1.371,8.266 0.232,16.637 0.406,24.954 0.171,10.066 1.367,21.114 -4.111,30.117 -1.883,3.512 -5.629,5.623 -9.479,6.229 -9.98,1.059 -20.041,-0.609 -29.609,-3.439 -6.287,-1.846 -12.707,-4.104 -17.768,-8.41 -3.357,-2.739 -5.105,-7.604 -3.336,-11.727 1.396,-3.98 5.922,-5.845 9.889,-5.636 7.599,-0.459 14.634,2.716 21.625,5.191 4.52,1.78 8.727,4.246 13.133,6.279 2.33,-4.049 5.162,-7.829 7.004,-12.146z"/><path d="m70.017,74.836c18.66,0.774 37.366,2.854 56.032,1.043 11.381,-0.479 22.851,-2.718 34.201,-0.706 5.798,1.542 8.744,9.961 4.422,14.415 -2.042,2.517 -5.183,4.01 -8.389,4.27 -8.281,1.2 -16.504,-0.884 -24.722,-1.637C119.382,90.107 107.459,86.763 95.495,83.695 86.571,82.141 78.404,78.066 70.017,74.836Z"/><path d="m120.222,109.257c9.127,-6.066 18.587,-12.888 29.872,-13.787 5.714,-0.673 11.05,2.667 14.38,7.083 6.079,8.943 10.518,18.924 13.583,29.278 4.677,-4.61 9.81,-10.232 16.915,-10.206 3.869,0.413 8.172,1.911 10.105,5.571 2.084,3.36 1.537,7.482 1.002,11.192 -1.443,7.044 -5.213,13.414 -10.008,18.698 -9.137,10.065 -20.246,18.048 -31.493,25.571 -8.929,6.139 -18.553,11.172 -28.229,16.01 5.995,-11.563 13.95,-22.073 19.648,-33.797 -0.933,-4.036 -3.648,-7.492 -4.519,-11.598 -3.252,-10.151 -4.748,-20.715 -6.448,-31.205 -17.621,4.538 -34.6,11.28 -52.236,15.779 -4.711,1.213 -9.361,2.675 -14.132,3.646 4.69,-4.577 9.306,-9.259 14.312,-13.494 9.031,-6.32 18.239,-12.388 27.248,-18.741z"/><path d="m120.35239,246.90769c-5.08737,-0.71351 -7.81306,-6.36835 -5.21033,-10.80958 0.60052,-1.0247 2.03729,-2.29406 3.24318,-2.86528 1.02128,-0.48377 1.16146,-0.50763 2.98262,-0.50763 1.88571,0 1.92674,0.008 3.1038,0.58953 3.13465,1.54923 4.72477,4.96243 3.8595,8.28442 -0.34731,1.33341 -0.94361,2.33694 -1.97081,3.31672 -1.68618,1.60834 -3.78378,2.30376 -6.00796,1.99182z"/><path d="m139.1979,229.18545c-1.87234,-0.62634 -3.19763,-1.60755 -4.16005,-3.07999 -2.9957,-4.58322 -0.60849,-10.53022 4.73136,-11.78674 4.31689,-1.0158 8.60922,1.95512 9.3033,6.43925 0.49782,3.21621 -1.23877,6.45217 -4.26816,7.95329 -1.27656,0.63256 -1.40604,0.66301 -3.03391,0.71334 -1.33466,0.0413 -1.88804,-0.0102 -2.57254,-0.23915z"/><path d="m35.370507,166.23011c-1.910464,-0.70126 -3.676258,-2.51901 -4.340374,-4.46809 -0.498505,-1.46303 -0.330826,-4.15333 0.340185,-5.45801 0.750595,-1.45943 1.880213,-2.58179 3.322835,-3.30149 1.72956,-0.86284 4.281042,-0.92407 6.010606,-0.14424 1.462175,0.65928 3.096134,2.28278 3.739464,3.71553 0.730771,1.62749 0.709601,4.27765 -0.04674,5.85087 -0.776018,1.61415 -2.338355,3.09008 -3.882574,3.66785 -1.496389,0.55987 -3.823375,0.62212 -5.143404,0.13758z"/><path d="m55.013721,148.62486c-1.474822,-0.58342 -3.200436,-2.21427 -4.024101,-3.8031 -0.563554,-1.08709 -0.639611,-1.47263 -0.641431,-3.2515 -0.0017,-1.70809 0.08755,-2.20923 0.581211,-3.26173 0.803464,-1.713 1.733636,-2.70057 3.389105,-3.59823 1.322304,-0.717 1.541055,-0.76422 3.539694,-0.76407 2.51204,2e-4 3.612497,0.40442 5.286801,1.94196 2.046575,1.8794 2.913848,4.74145 2.238201,7.38617 -0.581812,2.27742 -1.950298,3.99572 -4.049265,5.08436 -1.566512,0.81247 -4.614683,0.94083 -6.320215,0.26614z"/><path d="M104.79596,223.15794C85.251253,204.47567 70.877668,190.98503 54.943066,176.36742c-5.241635,-4.80841 -9.82272,-9.02135 -10.180189,-9.36208l-0.649943,-0.61951 0.805432,-0.94096c1.008049,-1.17768 1.699769,-2.63266 2.036559,-4.28374l0.260779,-1.27844 3.6955,3.38c14.95003,13.67367 31.748623,29.30354 44.395251,41.30656 9.406835,8.9281 26.058405,24.87782 26.551255,25.43214l0.42718,0.48045h-0.99673c-1.96113,0 -4.38289,0.87773 -5.72363,2.07444l-0.48422,0.4322z"/><path d="m142.96641,256.24437c-3.04008,-0.44291 -5.74537,-1.61387 -8.63531,-3.73772 -1.71291,-1.25884 -5.70216,-4.99879 -6.08495,-5.70468 -0.15785,-0.29109 -0.0203,-0.64901 0.55996,-1.45757 0.96287,-1.3416 1.41573,-2.46574 1.77287,-4.40081l0.28011,-1.51769 2.10003,2.31126c2.40121,2.64273 4.71731,4.76529 6.46726,5.92684 3.47352,2.30559 8.16058,2.45747 12.1217,0.39279 5.1362,-2.67717 12.77376,-10.48531 13.73926,-14.04612 0.50005,-1.84423 -0.008,-4.30049 -1.28879,-6.2366 -1.10749,-1.67353 -6.00928,-5.46404 -15.2106,-11.76222 -11.21641,-7.67748 -25.42844,-18.43063 -34.59014,-26.17169 -12.81328,-10.82642 -23.816332,-22.17722 -36.031193,-37.16997 -6.630685,-8.13862 -10.199328,-12.82787 -13.610263,-17.88407 -4.036947,-5.98417 -5.873937,-8.25882 -8.105754,-10.03697 -2.821448,-2.24791 -5.033424,-3.07136 -8.209857,-3.05627 -3.920943,0.0186 -7.272561,1.87237 -11.68623,6.46352 -1.926198,2.00365 -2.623921,2.90653 -3.224982,4.17324 -2.60181,5.48321 -1.659002,13.01049 2.100474,16.76996l1.084092,1.0841 -1.268785,0.36451c-1.481829,0.42573 -2.972117,1.32356 -4.059726,2.44581 -0.425025,0.43856 -0.832346,0.79738 -0.905159,0.79738 -0.251318,0 -1.844749,-2.295 -2.719829,-3.91735 -3.43214,-6.36296 -3.535999,-14.2491 -0.275321,-20.90548 1.557563,-3.17962 5.999874,-7.866 9.972917,-10.52084 3.869537,-2.58567 7.123173,-3.67427 10.981753,-3.67427 5.223563,0 9.807765,1.94247 14.088998,5.96994 2.443267,2.29845 4.006322,4.28884 7.638594,9.72693 3.148533,4.71386 7.463742,10.39783 13.449079,17.71504 16.818212,20.56067 30.157642,33.27804 52.365342,49.9234 7.68117,5.75728 11.05152,8.19557 15.92112,11.51818 11.09292,7.56891 16.09654,11.51078 17.86606,14.07496 3.39015,4.9126 3.6977,10.91164 0.80462,15.69513 -3.0812,5.09456 -9.00508,10.86573 -14.61266,14.23599 -3.70502,2.22678 -8.59038,3.22386 -12.79469,2.61134z"/></svg>
