<svg version="1.1" xmlns="http://www.w3.org/2000/svg" width="300" height="300" viewBox="0 0 300 300"><path d="M113.42099,47.962209C120.65699,47.279209 128.31099,50.246209 132.84899,56.005209C136.05699,59.596209 137.44199,64.397209 137.98199,69.087209C137.74899,76.277209 134.10799,83.302205 128.07699,87.311205C122.09999,91.131207 114.30399,92.174207 107.68199,89.436205C96.588989,85.608205 90.062989,71.416209 95.628989,60.769209C98.700989,53.638209 105.81099,48.886209 113.42099,47.962209z"/><path d="M212.19365,77.71586C212.00213,77.321136 211.61977,76.532452 211.42825,76.137728C208.22961,81.042715 205.70887,86.314784 202.48837,91.203146C193.71223,100.91 182.20366,109.65492 168.41582,111.44652C156.76649,112.19053 146.58762,105.85964 136.22429,101.86291C130.66914,99.887956 124.04389,97.759086 118.45746,100.81185C115.60178,103.02976 113.58153,106.73197 114.54071,110.27458C115.65511,118.17629 124.04998,122.40667 131.26135,124.8003C140.39388,127.45113 149.95464,129.62697 159.58086,128.80788C177.60309,126.7165 193.1891,115.52999 203.10429,101.57674C207.78195,94.328276 211.79833,86.330154 212.19365,77.71586z"/><path d="M81.506096,205.21182C79.07851,201.46859 79.963661,196.5166 81.402021,192.32072C86.289618,187.70589 93.321145,187.27162 99.171607,188.90689C110.45457,191.9015 120.90788,196.98341 131.29118,201.96835C141.77842,207.04455 151.26762,213.97079 159.05994,222.50617C173.5088,239.32808 183.10793,261.23891 182.35548,284.42797C182.11566,284.9676 181.63779,286.04724 181.39886,286.58704C177.83358,276.53924 174.26857,266.25733 167.96966,257.65823C161.88437,248.94501 154.92171,240.80117 146.76909,233.96179C142.25683,230.08043 137.36156,226.41494 131.57604,224.49303C119.69868,220.86316 107.26354,218.8847 95.496294,214.94544C90.055282,213.02443 84.452387,210.33354 81.506096,205.21182z"/><path d="M124.8973,190.70516C122.47095,185.62982 124.69866,180.37297 126.97209,175.96721C129.57952,170.90067 134.16994,167.26833 138.86842,164.11551C148.34659,157.75152 159.69972,153.66028 171.60432,153.4379C176.93419,153.28183 182.42021,154.92488 186.82482,158.16127C190.76603,161.6019 193.31874,166.18741 195.70764,170.66741C199.61522,178.08735 202.21882,185.9905 204.73678,193.86126C208.39232,204.28641 209.73402,215.15757 211.3776,225.8816C211.16624,226.20411 210.7445,226.84934 210.53219,227.17164C201.82623,212.30382 194.62613,196.6271 184.50267,182.50952C181.97509,179.1495 179.50862,175.52865 175.79055,173.28798C168.8463,172.87883 164.33675,178.29284 159.36665,181.81113C152.23166,187.61916 145.11634,194.58389 135.32442,195.97332C131.4787,195.90892 126.99852,194.17188 124.8973,190.70516z"/><path d="M134.79112,15.102129C135.07982,15.426261 135.65679,16.073632 135.94549,16.397765C130.24164,17.185016 124.4589,17.239445 118.76198,18.052253C106.54623,21.721536 94.174516,28.136326 87.303753,39.316222C82.2033,49.071815 84.137603,60.404919 83.86505,70.958037C83.565654,76.547548 83.001211,83.12264 78.087191,86.716155C74.973401,88.288573 70.817705,88.542669 67.938402,86.289338C61.127322,82.148061 60.439206,73.199975 60.983621,66.012456C62.021393,57.06323 63.656459,47.935502 68.058151,39.956338C76.809734,25.242201 92.963493,16.29045 109.49885,13.346632C117.90918,12.225723 126.75495,11.977227 134.79112,15.102129z"/><path d="M161.15625 6.1875L116.3125 30.6875L112.96875 32.5L116 34.8125C143.19221 55.438611 158.33488 79.892943 168.375 106.15625C170.12274 106.20725 171.85593 106.1847 173.59375 106.09375C163.64537 79.530345 148.64788 54.433145 121.9375 33.21875L163.5 10.53125L161.15625 6.1875z M180.5 127.28125C178.95504 127.85124 177.39139 128.3682 175.8125 128.8125C177.56915 134.99893 179.17614 141.23667 180.6875 147.53125L180.9375 148.5L181.78125 149.03125C206.55336 164.44119 219.28786 185.70526 228.375 196.84375L188.4375 288.875L187.1875 288.875L187.1875 292.1875L191.90625 293.1875L233.4375 197.46875L234.0625 196.0625L233.0625 194.875C224.75505 185.0568 211.34236 162.00115 185.25 145.4375C183.78216 139.36283 182.21949 133.30208 180.5 127.28125z"/></svg>
