<svg version="1.1" xmlns="http://www.w3.org/2000/svg" width="300" height="300" viewBox="0 0 300 300"><path d="M97.589844,25.416017C70.456117,25.702254 43.469799,32.160309 19.316406,44.187501 8.0840715,49.455412 1.0279726,53.021538 1.0566406,55.970704 1.1144262,61.915287 4.3436402,59.831072 11.855469,55.806642 32.642089,43.34617 61.266511,34.353626 85.675781,32.617189l6.025391,-0.427735 -3.171875,2.71875C70.262043,50.571338 56.27595,68.318927 46.345703,88.431642 38.889961,103.53254 34.510847,117.34435 31.972656,133.7793c-1.502431,9.72855 -1.490554,29.38223 0.02148,38.37304 6.400627,38.0591 26.951249,68.01836 56.666015,84.70508 11.955469,6.02043 26.812009,9.46139 36.605459,8.41016 9.54101,-1.013 17.26243,-7.27083 26.23243,-10.04883 7.652,-2.263 15.95687,-0.53923 23.04687,2.75977 8.718,3.399 16.72402,8.78576 26.04102,10.50976 10.75801,2.329 21.50013,-1.66381 30.95313,-6.50781 9.007,-3.926 18.10473,-10.3053 28.42774,-8.4043 13.173,1.785 22.1422,13.47892 35.0332,16.04492 2.614,0.989 5.58272,-1.79201 4.26172,-4.41601 -1.319,-1.949 -3.95783,-1.6631 -5.92383,-2.4961 -8.666,-3.088 -15.453,-9.84845 -24.125,-12.93945 -8.654,-3.656 -18.85403,-3.58422 -27.33203,0.55078 -11.626,4.199 -22.04625,12.76841 -34.90625,12.69141 -14.973,-0.768 -26.6958,-11.87033 -41.2168,-14.36133 -5.076,-0.689 -10.34589,-0.8685 -15.33789,0.4375 -9.497,2.759 -17.65365,9.41845 -27.72265,10.31445 -9.1047,0.4008 -17.80649,-1.97658 -27.291815,-6.19271C85.920131,248.99349 78.098387,242.27154 69.820307,233.98438 54.326538,218.47359 44.57088,199.90511 39.548823,176.36914c-1.587983,-7.44212 -1.71365,-9.12451 -1.71875,-23.24414 -0.0049,-13.04624 0.194292,-16.26431 1.386719,-22.51562 2.861931,-15.00375 6.793115,-26.55768 13.8125,-40.591801 11.777645,-23.547489 30.009666,-43.973548 53.501958,-59.9375l6.5332,-4.439453 -10.04687,-0.199219c-1.80943,-0.03595 -3.618826,-0.04447 -5.427741,-0.02539z"/><path d="m35.411685,85.066079c14.01701,-10.085744 12.18603,-10.491394 104.127025,68.131201 52.7023,45.06793 69.07081,71.63471 76.91607,93.97901C188.63771,238.05023 155.29861,222.8702 106.22538,174.35503 21.668055,90.759239 21.751995,94.894699 35.411685,85.066079Z"/><path d="m201.85401,20.10899c10.306,-1.429001 20.779,5.714999 23.398,15.749999 2.657,8.732 -1.39,18.617 -8.835,23.647 -5.605,3.597 -12.876,4.701 -19.155,2.274 -6.892,-2.288 -12.168,-8.365 -13.737,-15.422 -1.735,-5.236 -0.133,-10.889 2.342,-15.604 3.168,-5.918 9.472,-9.627 15.987,-10.644999z"/><path d="m278.84401,65.656989c4.313,-10.387 9.244,-20.54 12.246,-31.412 1.371,8.266 0.232,16.637 0.406,24.954 0.171,10.066 1.367,21.114 -4.111,30.117 -1.883,3.512 -5.629,5.623 -9.479,6.229 -9.98,1.059 -20.041,-0.609 -29.609,-3.439 -6.287,-1.846 -12.707,-4.104 -17.768,-8.41 -3.357,-2.739 -5.105,-7.604 -3.336,-11.727 1.396,-3.98 5.922,-5.845 9.889,-5.636 7.599,-0.459 14.634,2.716 21.625,5.191 4.52,1.78 8.727,4.246 13.133,6.279 2.33,-4.049 5.162,-7.829 7.004,-12.146z"/><path d="m84.144015,59.003989c18.659995,0.774 37.365995,2.854 56.031995,1.043 11.381,-0.479 22.851,-2.718 34.201,-0.706 5.798,1.542 8.744,9.961 4.422,14.415 -2.042,2.517 -5.183,4.01 -8.389,4.27 -8.281,1.2 -16.504,-0.884 -24.722,-1.637 -12.179,-2.114 -24.102,-5.458 -36.066,-8.526 -8.924,-1.554 -17.090995,-5.629 -25.477995,-8.859z"/><path d="m134.34901,93.424989c9.127,-6.066 18.587,-12.888 29.872,-13.787 5.714,-0.673 11.05,2.667 14.38,7.083 6.079,8.943 10.518,18.924001 13.583,29.278001 4.677,-4.61 9.81,-10.232 16.915,-10.206 3.869,0.413 8.172,1.911 10.105,5.571 2.084,3.36 1.537,7.482 1.002,11.192 -1.443,7.044 -5.213,13.414 -10.008,18.698 -9.137,10.065 -20.246,18.048 -31.493,25.571 -8.929,6.139 -18.553,11.172 -28.229,16.01 5.995,-11.563 13.95,-22.073 19.648,-33.797 -0.933,-4.036 -3.648,-7.492 -4.519,-11.598 -3.252,-10.151 -4.748,-20.715 -6.448,-31.205 -17.621,4.538 -34.6,11.28 -52.236,15.779 -4.711,1.213 -9.360995,2.675 -14.131995,3.646 4.69,-4.577 9.305995,-9.259 14.311995,-13.494 9.031,-6.32 18.239,-12.388001 27.248,-18.741001z"/></svg>
