<svg version="1.1" xmlns="http://www.w3.org/2000/svg" width="300" height="300" viewBox="0 0 300 300"><path d="M192.045,27.151c9.665-8.422,22.375-11.751,34.682-14.042c-1.945,3.01-5.224,4.635-7.979,6.766c-6.979,5.124-14.194,10.657-18.042,18.649c-2,4.271-4.717,8.227-6.242,12.703c-0.721,5.723,3.688,10.163,6.893,14.338c3.172,4.225,7.298,7.54,10.939,11.32c2.954,3.852,0.823,9.169-2.324,12.194c-2.389,2.341-6.021,1.926-9.061,1.641c-6.459-1.529-10.922-6.975-14.584-12.147c-5.337-7.584-10.416-16.172-10.5-25.716C177.225,42.46,184.415,33.865,192.045,27.151z"/><path d="M171.535,38.588c4.563-3.582,8.664-7.848,13.752-10.702c-0.553,1.432-1.225,2.815-2.059,4.102c-16.219,24.849-32.908,49.393-48.838,74.431c-5.658,7.909-12.157,15.157-18.601,22.425c-5.568,5.985-13.237,10.683-21.721,9.881c-3.554,0.791-5.562-2.772-6.314-5.684c-1.137-4.484,0.4-9.077,2.21-13.158c3.138-7.033,8.707-12.531,14.211-17.749c7.063-6.6,13.533-13.798,20.628-20.364C140.246,67.231,155.9,52.918,171.535,38.588z"/><path d="M131.508,52.532c2.843-2.842,4.351-6.813,7.618-9.248c-1.793,5.818-4.647,11.24-6.997,16.845c-5.48,11.723-14.282,22.76-26.639,27.58c-8.089,3.144-16.859,4.051-25.481,3.713c-8.025,0.395-16.517-1.358-22.782-6.654c-3.346-2.746-7.296-6.097-7.128-10.848c0.1-3.124,3.273-4.7,5.776-5.767c4.271-1.393,8.417,0.794,12.271,2.395c12.778,4.719,27.407,6.959,40.369,1.629C118.34,68.649,124.685,59.911,131.508,52.532z"/><path d="M14.227,76.858c3.405-2.654,8.055-1.149,11.313,0.985c1.692,3.873,2.914,8.004,3.569,12.184c1.235,12.806,1.792,25.689,3.873,38.402c4.367,0.522,7.948-2.473,11.847-3.875c7.762-3.324,16.234-4.402,24.077-7.484c4.675-1.775,9.448-3.366,14.378-4.264c-0.827,1.878-2.12,3.483-3.647,4.837c-12.697,11.439-26.993,21.86-43.716,26.375c-2.991,0.734-6.122,0.75-9.154,0.277c-4.745-2.877-7.963-7.626-10.813-12.263c-6.2-11.662-10.031-24.847-9.648-38.127C6.467,87.514,8.951,80.759,14.227,76.858z"/><path d="M255.135,99.803c0.579-4.301,2.949-9.4,7.813-9.911c5.36-0.513,10.401,2.386,14.185,5.949c4.003,4.337,6.635,9.724,8.856,15.14c3.19,8.293,5.771,16.97,6.159,25.897c0.318,7.499-4.771,13.56-9.387,18.879c-5.342,5.512-11.519,10.521-18.935,12.889c-5.478,1.646-10.827,3.885-16.519,4.684c2.04-3.507,5.377-5.93,8.006-8.951c6.955-6.932,13.305-14.624,17.805-23.396c1.879-3.432,1.271-7.609-0.016-11.135c-3.025-8.238-8.209-15.488-13.93-22.064C257.004,105.624,255.541,102.85,255.135,99.803z"/><path d="M63.167,149.961c1.488-6.469,6.064-11.804,11.518-15.387c4.144,0.739,7.957,3.117,9.811,6.994c4.124,7.054,4.648,15.493,4.667,23.473c-1.07,11.267-1.965,22.553-2.688,33.849c-2.451,22.52-4.948,45.036-7.404,67.556c-0.993,6.252-1.958,12.524-3.361,18.701c-0.812-1.464-1.269-3.066-1.453-4.715c-3.768-28.775-7.02-57.621-11.195-86.337c-1.009-6.638-1.391-13.362-1.242-20.071C62.005,165.998,61.118,157.824,63.167,149.961z"/><path d="M174.699,167.652c5.527-7.112,14.412-12.004,23.592-10.997c4.596,3.925,4.793,10.774,3.296,16.215c-2.55,8.433-7.193,16.171-13.167,22.624c-10.199,11.163-19.557,23.072-29.999,34.017c-13.579,14.69-27.12,29.421-40.814,44.003c-4.434,3.811-7.995,8.727-13.104,11.682c0.488-1.367,1.074-2.688,1.757-3.96c14.352-25.021,28.55-50.13,42.649-75.294C155.922,192.195,164.966,179.586,174.699,167.652z"/><path d="M210.721,161.742c1.117-1.83,1.637-4.91,4.214-5.115c6.557-1.34,12.22,3.553,15.927,8.391c6.979,8.782,9.111,20.039,12.93,30.32c6.773,18.468,12.061,37.422,17.768,56.234c3.424,11.543,7.244,23.027,9.34,34.904c-0.855-0.672-1.593-1.448-2.211-2.328c-15.326-25.02-29.864-50.527-45.375-75.432c-4.165-7.766-7.816-15.792-11.096-23.966C209.361,177.521,207.074,169.137,210.721,161.742z"/><circle cx="239.948" cy="57.052" r="22.198"/><circle cx="28.907" cy="45.26" r="22.24"/></svg>
