<svg version="1.1" xmlns="http://www.w3.org/2000/svg" width="240pt" height="240pt" viewBox="0 0 240 240"><g transform="translate(0,240) scale(0.1,-0.1)"><path d="M1285 1964 c-37 -19 -64 -43 -77 -69 -35 -64 -26 -160 20 -209 85 -91 220 -80 289 23 52 77 16 208 -67 251 -47 24 -123 26 -165 4z"/><path d="M155 1811 c-55 -24 -78 -62 -78 -126 0 -58 18 -97 65 -141 72 -68 172 -91 241 -56 l37 20 140 -84 c136 -82 190 -101 190 -68 0 10 6 14 14 11 8 -3 60 -8 117 -12 125 -8 304 20 372 57 52 29 71 80 43 122 -24 37 -76 34 -174 -9 -150 -66 -281 -86 -425 -65 -69 9 -100 20 -159 53 l-73 42 -6 67 c-5 67 -10 77 -58 132 -35 38 -117 76 -166 76 -22 0 -58 -9 -80 -19z m117 -51 c100 -28 163 -145 106 -197 -49 -44 -123 -35 -188 24 -64 57 -67 137 -8 166 39 20 42 20 90 7z"/><path d="M1712 1595 c-40 -17 -48 -36 -32 -76 17 -39 42 -51 182 -83 129 -30 173 -53 203 -108 18 -33 18 -42 7 -108 -7 -39 -26 -97 -42 -130 -34 -68 -35 -70 -17 -70 22 0 123 106 146 153 43 88 46 213 6 273 -78 119 -331 202 -453 149z"/><path d="M230 1390 c-26 -26 -27 -90 -2 -113 26 -24 87 -22 112 3 28 28 26 81 -3 108 -30 28 -80 29 -107 2z"/><path d="M1665 1135 c-14 -13 -25 -31 -25 -40 0 -22 -18 -18 -25 6 -4 11 -22 28 -41 37 -30 14 -41 14 -82 4 -72 -19 -134 -61 -380 -257 -443 -351 -620 -490 -638 -502 -18 -10 -18 -11 -1 -18 23 -10 101 28 477 235 475 260 627 348 653 380 l24 28 13 -71 c29 -169 104 -352 165 -405 51 -46 103 -66 253 -101 193 -45 247 -55 265 -48 34 13 14 26 -95 62 -214 70 -320 147 -352 255 -9 29 -20 123 -26 207 -8 117 -15 164 -29 192 -33 63 -111 82 -156 36z"/></g></svg>
