<svg width="512" height="512" version="1.1" viewBox="0 0 512 512" xmlns="http://www.w3.org/2000/svg"><g transform="translate(122.4)"><path d="m113.3 300c-6.017-61.94 45.84-78.26 20.35-129.7 61.39 47.06 10.05 137.4 10.05 137.4s58.15-32 60.69-97.28c2.435-65.25-71.72-105.8-100-125.5-28.28-19.69-3.721-84.97-3.721-84.97s-37.21 41.88-37.67 87.05c-0.4174 45.18 7.93 66.6 25.91 95.92 17.98 29.28 11.76 63.2 24.42 117.1z"/><path d="m63.13 447.3h140.9l50.61-102.5-57.25 0.0348c0.5217-0.3478 0.9043-0.6956 1.426-1.043 2.435-1.774 4.869-3.687 7.269-5.634s5.078-3.965 7.547-6.087c5.078-4.069 10.12-8.834 15.16-13.46l1.913-1.809 1.809-1.878 0.7652-0.9391 3.269-3.756c0.9043-0.9043 2.574-3.2 3.93-5.321 1.356-2.122 2.782-4.278 3.895-6.4 1.843-4.139 3.826-8.139 4.765-12.45 1.287-4.208 1.948-8.382 2.191-12.49 0.4869-8.104-0.4174-15.69-2.156-22.16-1.565-6.573-3.93-12.17-6.26-17.11-4.834-9.738-9.773-16.73-13.15-21.81-1.53-2.539-3.165-4.556-3.861-6.017-0.9043-1.461-1.391-2.226-1.391-2.226s-0.3478 0.8347-0.8695 2.469c-0.4869 1.704-1.217 4.174-1.704 7.408-0.3826 3.13-0.9043 7.026-1.078 11.3-0.2782 4.139-0.4869 8.799-0.6956 13.88-0.2782 4.869-0.4522 9.947-1.148 14.82-0.4521 4.904-1.565 9.53-2.922 13.77s-3.548 7.756-5.634 11.3l-1.565 1.843c-0.4869 0.626-0.5913 1.148-2.052 2.574l-3.374 3.652-0.2782 0.2435-0.1391 0.1739-0.4522 0.3478-1.774 1.669c-4.661 4.591-9.286 9.112-13.81 13.95-4.556 4.626-9.008 9.773-13.11 14.82-4.208 5.078-8.104 10.57-11.41 15.96-2.052 3.617-3.791 6.991-5.391 10.47h-33.77c-7.86-12.14-17.63-24.62-27.86-37.35-5.53-6.852-10.99-13.77-16.35-20.76-5.147-6.956-10.4-14.02-14.4-21.01-4.452-7.373-7.339-13.29-9.286-20.31-1.009-3.443-1.6-7.13-2.295-10.82-0.4521-3.756-0.8347-7.582-0.9738-11.48-0.7304-15.58 1.183-31.75 2.261-46.22 1.183-14.47 1.565-27.65-0.8695-36.97-1.043-4.695-3.13-8.069-4.904-10.02-1.669-1.774-2.852-2.191-2.817-2.33-0.06956 0 0.5565 1.252 0.7999 3.513 0.3478 2.052-0.03478 5.182-1.043 8.939-2.191 7.513-7.652 17.81-13.6 31.09-5.913 13.32-12.69 29.81-15.3 50.15-1.287 10.09-1.426 21.29 0.8347 32.69 1.113 5.739 2.678 11.51 5.043 17.04l1.843 4.139 1.843 3.721c0.9391 1.948 2.539 4.73 3.965 7.234 5.774 9.53 12.1 17.84 18.89 25.39 6.608 7.686 13.7 14.36 20.59 20.56 5.182 4.695 10.23 8.73 15.23 12.76l-72.41-0.06958z m139.6-159.3-0.1043 0.1391-0.1391 0.1043c0.1391-0.1043 0.1391-0.1043 0.2435-0.2435z"/><path d="m24.38 512 213.2 0.03478 0.7304-47.58h-213.2z"/></g></svg>
