<svg version="1.1" xmlns="http://www.w3.org/2000/svg" width="300" height="300" viewBox="0 0 300 300"><path d="M88.905,31.075c15.268,16.733,30.992,33.047,47.068,49.005c5.43,4.957,10.269,10.647,16.457,14.709c2.811,1.884,6.404,2.786,9.692,1.687c1.923-0.64,4.644-1.095,4.969-3.543c1.52-3.735,1.068-8.328-1.699-11.373c-4.521-4.99-10.429-8.382-15.768-12.391c-11.003-7.731-22.502-14.71-33.597-22.3c-8.472-5.756-16.558-12.061-25.014-17.836c-1.419-0.624-2.8-2.279-4.481-1.489C86.291,29.105,88.172,29.901,88.905,31.075z"/><path d="M163.024,142.889c-2.615-1.785-6.257-1.731-8.837,0.08c-5.911,3.827-7.91,11.396-8.012,18.055c0.791,14.034,1.261,28.095,2.474,42.101c2.326,17.899,4.1,35.859,6.461,53.754c1.086,8.006,0.721,16.273,3.043,24.076c0.336-0.608,1.007-1.823,1.343-2.43c3.757-33.13,6.863-66.338,10.385-99.494c0.658-8.975,2.117-18.261-0.525-27.054C167.753,148.673,166.496,144.71,163.024,142.889z"/><path d="M240.507,261.649c-26.178,11.272-53.661,21.481-82.49,22.136c-20.968,0.52-41.565-5.066-60.784-13.072C63.511,256.737,32.236,237.735,0,220.77v6.931c16.751,9.403,33.704,18.452,50.603,27.59c23.177,11.83,46.498,24.173,71.95,30.354c16.362,4.4,33.586,5.088,50.369,3.143c18.129-2.281,35.748-7.62,52.685-14.359c25.576-9.735,50.02-22.117,74.393-34.487v-7.193C280.525,243.075,260.751,252.903,240.507,261.649z"/><circle cx="162.977" cy="50.317" r="22"/></svg>
