<svg version="1.1" xmlns="http://www.w3.org/2000/svg" width="300" height="300" viewBox="0 0 300 300"><path d="m112.62156,125.47924a17.052011,17.052011 0 0 0 -17.052021,17.05203 17.052011,17.052011 0 0 0 17.052021,17.05202 17.052011,17.052011 0 0 0 17.05203,-17.05202 17.052011,17.052011 0 0 0 -17.05203,-17.05203z m-30.198319,21.52818c-4.202823,0.0491 -8.759199,3.07313 -8.024602,7.71604 1.49746,8.22551 6.955542,15.0838 12.391138,21.17497 7.378162,8.79143 18.428533,13.46116 29.335573,16.12634 9.55849,2.80393 19.65442,3.38155 29.55278,2.91306 -5.07546,-2.284 -11.03136,-1.55094 -16.0086,-4.18181 -11.1526,-5.19862 -22.72069,-11.13314 -30.09885,-21.34955 -4.036365,-5.26255 -5.632112,-11.85091 -9.102538,-17.43772 -1.468616,-2.25359 -3.641372,-4.10779 -6.280829,-4.79689 -0.569439,-0.11839 -1.16367,-0.17147 -1.764072,-0.16444z m-54.048825,19.86359c-3.580337,1.43977 -6.715478,4.18989 -7.636871,8.06722 -1.995573,8.18653 1.257077,16.32872 2.740504,24.31335 3.248263,16.70123 8.619769,32.87866 12.165808,49.50973 2.405601,8.21849 4.909653,16.41528 7.35267,24.62597 0.874621,2.55449 1.479938,5.29914 3.176953,7.47244 0.511366,-6.15197 -0.0693,-12.31761 -0.339011,-18.46491 -1.001691,-21.49138 -2.264184,-42.97123 -4.279244,-64.39168 -0.952574,-7.88406 -0.752664,-16.12852 -4.064066,-23.51759 -1.597238,-3.84616 -4.977489,-6.84905 -9.116743,-7.61453z m21.74539,1.55701c-1.472234,-0.0283 -2.947385,0.0537 -4.413227,0.25172 -2.715848,2.28089 -4.711473,5.86362 -4.122934,9.4923 0.868385,3.44391 3.995291,5.53159 6.778179,7.37906 6.337502,3.77755 13.466946,5.8718 20.324388,8.46916 -5.87057,12.10439 -11.712032,24.22838 -17.853875,36.20104 -0.881638,1.65959 -1.267322,3.51565 -1.544832,5.35921 1.279973,-0.50902 2.496222,-1.16032 3.434764,-2.1924 5.90253,-5.75208 11.309425,-11.99386 17.230665,-17.72802 4.269435,-4.5976 9.012094,-9.01011 11.723266,-14.77233 1.80537,-4.12756 3.324479,-8.99455 1.252511,-13.32088 -2.891239,-6.27359 -9.208908,-9.77704 -14.78248,-13.33712 -5.317694,-3.51324 -11.646752,-5.67936 -18.026425,-5.80174z m71.833684,30.89257c-2.18734,0 -4.37247,0.2112 -6.51226,0.64149 -6.04674,1.43977 -11.90948,3.85719 -16.92413,7.57394 -7.930062,5.37947 -13.525063,13.46527 -17.772671,21.91998 -4.160301,9.67071 -5.676601,20.47379 -3.881366,30.88039 1.91762,8.55602 5.843523,17.03759 12.906758,22.5371 5.753642,4.96087 13.229389,7.25523 20.738509,7.25523 4.45651,0 8.92457,-0.80838 13.05291,-2.34872 24.01625,-9.28252 38.33023,-38.19521 30.9474,-62.89355 -1.80225,-6.80286 -5.78253,-12.89732 -10.94374,-17.63057 -5.90408,-5.21108 -13.76632,-7.93529 -21.61141,-7.93529z M2.5,199.619v4.83548c0.1679722,0.0592 0.3311742,0.0782 0.4993808,0.14006 8.3767282,3.63647 14.9504692,11.77113 17.1697632,21.26022l0.02436,0.10354 0.02842,0.10352c3.265411,11.55639 0.283127,22.97915 -2.821703,30.56779C14.551341,262.5182 9.673065,269.98576 2.5,275.50457v5.75913c8.469668,-5.45112 14.842186,-13.72636 19.173377,-22.72792 4.350504,-10.57107 6.200665,-22.58949 3.049063,-33.74677C22.237329,214.16415 14.851342,204.58807 4.7370632,200.25237 4.0114162,199.98267 3.2406888,199.85006 2.5,199.619Z m119.45552,4.37872c6.87927,0 13.61304,2.45567 18.48114,6.73759 4.74261,4.35829 8.04435,9.66458 9.55116,15.34885l0.0183,0.071 0.0203,0.071c3.18044,10.64201 1.93539,22.96893 -3.41447,33.81985 -5.33972,10.83378 -14.34563,19.34675 -24.71326,23.36128 -3.59359,1.33766 -7.53218,2.04421 -11.39237,2.04421 -6.82392,0 -13.105227,-2.17375 -17.683354,-6.12046l-0.08933,-0.0792 -0.09135,-0.0711c-6.728821,-5.23915 -9.797931,-13.61103 -11.189375,-19.75599 -1.569954,-9.23419 -0.347778,-18.91015 3.534234,-27.99779 4.675565,-9.27163 9.96069,-15.82078 16.154765,-20.02396l0.0812,-0.0548 0.0792,-0.0568c4.14394,-3.07052 9.23879,-5.34429 15.13975,-6.7599 1.79602,-0.35468 3.64966,-0.5339 5.5135,-0.5339z"/><path d="m154.12555,81.8513c-2.3498,-0.631433 -9.01471,-3.390875 -14.81088,-6.132097 -18.96891,-8.971103 -20.81449,-8.954951 -37.82786,0.330984 -7.426828,4.053583 -8.102392,4.266299 -14.52633,4.573607 -7.726663,0.369628 -12.047202,-0.807199 -23.274278,-6.33944 -5.017922,-2.47262 -6.625924,-3.643337 -6.625924,-4.82402 0,-2.323045 2.778951,-2.344425 7.294714,-0.05612 9.099055,4.610836 15.586413,6.681566 20.983196,6.697728 4.970956,0.01487 5.811053,-0.273185 16.277772,-5.581444 16.54963,-8.393218 20.51594,-8.293615 40.21576,1.009948 18.6804,8.822121 22.12767,8.838657 39.66148,0.190307 5.59927,-2.761781 12.25576,-5.720521 14.79217,-6.57498 9.23537,-3.111162 16.99752,-1.933856 27.59229,4.185021 8.65731,4.999931 13.75822,7.534975 15.16152,7.534975 2.21217,0 4.07923,1.839732 3.47227,3.421443 -0.45303,1.1806 -1.1778,1.369639 -4.13491,1.078441 -2.60386,-0.25641 -6.25347,-1.872939 -13.32959,-5.904135 -11.57579,-6.594602 -17.01427,-8.278222 -22.87347,-7.081106 -2.211,0.451738 -9.80792,3.595068 -16.88208,6.985163 -16.34594,7.833366 -21.87142,8.983242 -31.16585,6.485709z m5.35209,-9.958568c-4.60714,-1.646411 -7.45011,-4.148321 -9.58735,-8.437173 -5.77781,-11.594563 2.32347,-24.006766 15.66887,-24.006766 4.87557,0 11.1137,3.589131 13.75081,7.911563 4.17996,6.851301 3.4987,13.907773 -1.90911,19.774563 -4.7963,5.203365 -11.6129,7.012873 -17.92322,4.757813z M131.28973,61.706646c-4.95495,-4.036277 -12.8719,-13.103398 -15.79216,-18.08646 -2.84611,-4.856521 -4.4156,-11.623508 -3.48528,-15.027043 0.93615,-3.424815 3.47003,-5.22458 13.29297,-9.441747 12.08998,-5.190454 32.4873,-10.5793653 34.06641,-9.000259 0.77182,0.771827 -3.40549,4.096583 -11.47305,9.131498 -15.14628,9.4527 -21.85078,13.946878 -21.85078,14.647083 0,0.407899 3.83896,4.548283 8.53104,9.200851 8.87346,8.79876 10.17746,10.814982 10.17746,15.736168 0,3.625033 -1.86441,5.50691 -6.00612,6.062429 -2.69748,0.361812 -3.46999,0.02817 -7.46049,-3.22252z"/><path d="m239.61449,107.98266a16.837658,16.837658 0 0 0 -16.83685,16.83684 16.837658,16.837658 0 0 0 16.83685,16.83886 16.837658,16.837658 0 0 0 16.83887,-16.83886 16.837658,16.837658 0 0 0 -16.83887,-16.83684z m-36.07316,29.15083c-5.13988,-0.10606 -10.36523,1.46564 -15.04436,3.43883 -4.11114,1.84245 -8.21797,4.32969 -11.14877,7.78505 -1.33221,1.57061 -2.4227,3.34294 -3.15869,5.34298 -2.25851,6.46525 -0.58187,13.56459 2.12136,19.61591 3.22065,4.87019 7.09542,9.35265 11.59539,13.08946 3.45298,2.93926 7.57768,4.91819 11.16298,7.67747 -3.83104,-3.05353 -5.50512,-7.80665 -8.19107,-11.74966 -2.78157,-4.8526 -5.19348,-10.03918 -6.07579,-15.60666 -0.30095,-3.44295 0.0263,-7.44878 2.93944,-9.77851 3.31018,-2.57122 7.63803,-3.04159 11.67049,-3.51394 4.31123,-0.85159 9.15746,-0.22082 12.90471,-2.93538 1.4822,-1.34762 3.35888,-2.84165 3.41448,-5.02832 -0.29288,-3.1064 -2.29434,-5.99101 -5.29425,-7.03397 -2.24037,-0.86207 -4.5596,-1.255 -6.89592,-1.30326z m48.25926,13.14021c-1.70539,-0.0311 -3.23561,1.16452 -4.44165,2.28172 -2.8305,2.96909 -3.57112,7.43565 -2.9232,11.37615 0.84533,7.23391 4.49634,14.01356 9.78664,18.97036 3.26126,3.12103 8.10923,4.08967 12.46625,3.36575 9.53098,-1.80446 18.16557,-7.68463 23.59472,-15.69193 2.42314,-3.37076 4.73402,-6.9014 6.07782,-10.85848 0.80849,-2.2972 0.60623,-4.78216 1.13883,-7.13749 -0.27166,-0.0531 -0.54011,-0.0893 -0.80996,-0.12383 -0.30944,1.17192 -0.86726,2.25503 -1.5631,3.24192 -3.46601,4.91978 -7.53962,9.57244 -12.76466,12.67534 -4.13678,2.48013 -8.41208,4.99959 -13.15442,6.08798 -3.93917,0.92545 -6.69063,-2.8492 -8.26617,-5.89514 -1.71536,-4.5946 -1.44351,-9.77524 -3.72708,-14.19784 -0.9736,-1.85771 -2.61978,-3.44199 -4.67511,-4.00317 -0.25029,-0.0584 -0.4953,-0.087 -0.73891,-0.0913z m-49.76552,43.80949c-3.70273,0.56674 -7.56564,2.58761 -8.91578,6.29504 -2.18501,5.43951 0.29913,11.62327 4.55533,15.30419 -7.4343,10.60847 -14.88887,21.20695 -22.32394,31.81624 -9.21939,13.58865 -17.92328,27.51278 -26.74123,41.36333 18.58455,-16.09167 37.03633,-32.33787 55.17345,-48.92916 4.13691,-4.2554 8.14804,-8.63194 12.09476,-13.0651 4.91253,3.16641 10.33502,5.43164 15.28186,8.53414 1.96905,1.1755 2.34887,3.68829 2.24518,5.78754 -0.39282,8.76883 -3.43484,17.10532 -4.75224,25.73231 -1.48731,7.68995 -2.58773,15.44454 -3.62761,23.207 3.36754,-5.7248 7.52018,-10.98179 10.43015,-16.97083 4.07455,-9.16093 8.26997,-18.26789 12.30792,-27.44361 2.48196,-6.77247 4.69579,-15.15841 0.0568,-21.5302 -5.32802,-6.50977 -12.68589,-10.88024 -18.88309,-16.46941 -0.18473,-1.44213 0.0172,-2.93048 -0.36133,-4.34219 -0.84502,-2.46171 -3.14933,-3.92467 -5.30237,-5.12982 -2.64646,-1.05077 -5.43096,-0.2093 -8.10783,0.1279 -4.21643,-1.86151 -8.50906,-3.71519 -13.13006,-4.28737z"/></svg>
