<svg version="1.1" xmlns="http://www.w3.org/2000/svg" width="300" height="300" viewBox="0 0 300 300"><path d="M89.076,181.238c5.74,0.43,12.249,0.779,16.841-3.355c3.136-1.975,4.892-5.977,3.557-9.553c-1.663-3.199-4.537-5.604-7.624-7.371c-11.562-6.052-26.074-2.907-36.906-10.814c-9.962-7.753-15.631-20.403-15.929-32.92c0.109-7.836,1.083-15.617,2.294-23.346c-3.719,0.716-3.898,5.278-5.684,7.974c-3.775,5.992-4.007,13.206-5.226,19.982c-1.654,12.037-1.036,25.296,6.167,35.571C56.317,171.063,72.328,180.046,89.076,181.238z"/><path d="M177.709,168.033c-3.77-0.285-7.629-0.13-11.359,0.422c-5.119,3.209-6.308,11.119-2.846,15.964c6.191,3.662,13.633,4.04,20.598,5.033c15.562,2.175,31.201-0.981,46.803,0.233c13.342-0.376,26.621-2.013,39.943-2.796c2.361-0.474,5.357,0.228,7.109-1.838C244.544,179.382,211.08,173.942,177.709,168.033z"/><path d="M266.021,202.718c-4.802-0.331-9.318,1.921-13.528,3.972c-10.032,5.2-19.775,12.491-31.542,12.715c-19.825-1.145-35.921-16.381-56.001-16.199c-18.55,0.046-33.679,13.42-51.95,14.845c-8.457,0.956-16.555-2.46-24.001-6.053c-5.561-2.726-11.623-4.338-17.755-5.094c-9.201-0.68-18.296,1.521-27.016,4.239c-4.703,1.513-9.529,2.81-13.897,5.177c0.041,1.435-0.324,3.231,1.006,4.243c3.011,0.944,6.008-0.497,8.813-1.457c9.748-3.315,19.863-6.7,30.29-6.084c12.671,0.957,23.083,9.813,35.678,11.055c7.107,0.518,14.352-0.162,21.095-2.55c12.732-4.5,24.837-12.104,38.731-12.179c18.94,0.631,34.112,15.117,53.009,16.019c13.188,1.115,24.543-6.863,35.595-12.836c3.813-2.238,8.095-3.436,12.416-4.23C269.859,207.479,268.819,202.87,266.021,202.718z"/><path d="M68.429,107.429c9.112,0,16.5-7.388,16.5-16.5c0-9.112-7.388-16.5-16.5-16.5c-9.113,0-16.5,7.388-16.5,16.5C51.929,100.041,59.317,107.429,68.429,107.429z M68.429,80.234c5.897,0,10.695,4.798,10.695,10.695s-4.798,10.695-10.695,10.695s-10.695-4.798-10.695-10.695S62.532,80.234,68.429,80.234z"/><circle cx="138.966" cy="146.35" r="21.875"/></svg>
