<svg version="1.1" xmlns="http://www.w3.org/2000/svg" width="300" height="300" viewBox="0 0 300 300"><path d="M186.656,113.442c-2.599-4.81-9.816-6.478-14.129-3.049c-2.26,2.441-3.353,5.699-4.346,8.81c-2.253,8.23-3.348,15.964-6.681,24.297l-1.811-0.216c-5.52-0.72-11.082-0.967-16.641-1.054c-9.888-1.082-20.063-3.998-27.792-10.507c-8.384-8.569-8.574-21.427-8.922-32.663c-0.351-5.878,0.133-12.279-3.005-17.528c-4.125-4.503-12.228-3.91-16.292,0.438c-4.967,4.945-5.627,12.43-5.906,19.062c0.135,13.432,5.563,27.056,15.513,36.219c8.136,7.588,19.432,10.801,30.365,10.936c7.316,0.019,14.712,1.2,21.962-0.246c2.915-0.832,5.838-1.627,8.801-2.285c1.394-0.323,3.435-0.823,3.435-0.823c-2.676,3.159-6.595,8.807-10.327,10.836c-6.896,3.92-15.117,4.634-22.9,4.603c-5.797-0.774-11.612-2.256-17.503-1.437c2.204,2.621,5.468,3.728,8.442,5.211c5.541,2.853,11.914,2.961,17.914,4.142c10.938,1.588,22.991,0.852,32.124-6.04c5.762-3.953,9.832-9.764,13.451-15.626c3.736-6.185,5.836-13.274,6.453-20.452C189.094,121.784,189.166,117.146,186.656,113.442z"/><path d="M50.566,134.139c-5.344,0.898-9.063,5.546-11.064,10.278c-3.844,9.398-3.99,19.708-5.601,29.608c-0.969,9.362-5.507,17.759-8.561,26.528c-4.544,12.722-15.863,20.892-25.341,29.78v8.656c6.276-4.06,13.086-7.303,18.922-12.029c19.831-14.612,35.745-35.407,41.687-59.568c1.949-8.439,3.472-17.512,0.741-25.958C59.972,136.925,55.319,133.549,50.566,134.139z"/><path d="M82.814,138.983c-5.108-3.734-13.542-2.87-17.171,2.518c-2.68,5.527,0.001,11.79,3.176,16.492c8.028,11.097,19.44,19.168,31.04,26.141c3.277,2.169,5.753,5.822,4.982,9.918c-1.156,11.56-5.383,22.548-9.767,33.224c-2.967,7.276-7.299,13.922-10.292,21.173c1.392-0.792,2.79-1.601,3.852-2.825c7.623-8.072,15.126-16.332,21.288-25.6c5.773-8.496,11.313-17.746,12.601-28.122c1.026-6.527-2.296-12.604-5.345-18.11C108.388,159.912,96.491,148.051,82.814,138.983z"/><path d="M204.966,204.271c-1.489-3.534-3.796-7.661-1.94-11.479c1.734-4.514,5.942-7.285,8.73-11.072c5.702-7.417,11.614-14.937,14.848-23.825c2.274-5.454,3.97-11.946,0.965-17.477c-3.624-6.501-13.837-5.174-17.972,0.107c-10.767,12.684-18.934,27.648-23.593,43.629c-2.094,7.287-2.689,15.523,1.256,22.318c7.706,13.001,20.199,22.068,32.109,30.93c5.639,3.323,10.846,7.772,17.184,9.655c-2.019-3.06-4.86-5.437-7.19-8.241C219.73,228.483,211.3,216.917,204.966,204.271z"/><path d="M278.108,208.916c-3.856-4.522-5.993-10.137-8.723-15.339c-2.236-4.702-5.045-9.189-6.436-14.245c-3.021-11.303-4.16-23.328-9.716-33.796c-2.432-4.754-7.104-7.731-12.174-9.006c-2.607,1.387-5.723,2.496-7.258,5.204c-2.65,4.438-2.361,9.866-1.723,14.803c2.66,18.67,12.115,35.854,24.764,49.636c11.997,12.952,27.139,22.575,43.158,29.78v-8.178C292.638,221.576,284.104,216.596,278.108,208.916z"/><circle cx="134.381" cy="72.342" r="21.6"/><circle cx="141.388" cy="117.344" r="21.599"/></svg>
